<svg width="55" height="48" viewBox="0 0 55 48" fill="none" xmlns="http://www.w3.org/2000/svg">
<path id="&#233;&#128;&#128;&#229;&#135;&#186; &#232;&#175;&#166;&#230;&#131;&#133;&#233;&#161;&#181;" d="M50.9101 11.7919H50.8808V11.7859H47.7044V11.78H28.071C27.4486 11.6434 26.9672 11.1327 26.8732 10.4913V2.48569C26.8732 2.44412 26.8732 2.40849 26.8674 2.36691C26.8674 2.3491 26.8674 2.33128 26.8615 2.30753C26.8615 2.28971 26.8615 2.26595 26.8556 2.24814C26.8556 2.22438 26.8498 2.20063 26.8498 2.17687C26.8498 2.15905 26.8439 2.14718 26.8439 2.12936C26.838 2.10561 26.838 2.07591 26.8321 2.05216C26.8321 2.04028 26.8263 2.0284 26.8263 2.01058C26.8204 1.98683 26.8145 1.95713 26.8087 1.93338C26.8087 1.9215 26.8028 1.90962 26.8028 1.89775L26.7852 1.82648C26.7793 1.8146 26.7793 1.79679 26.7734 1.78491C26.7676 1.76115 26.7617 1.7374 26.7499 1.71958C26.7441 1.70176 26.7382 1.68989 26.7323 1.67207C26.7265 1.65425 26.7147 1.6305 26.7088 1.61268L26.6912 1.55923C26.6854 1.54141 26.6736 1.5236 26.6677 1.50578C26.6619 1.48796 26.6501 1.46421 26.6443 1.44639C26.6384 1.43451 26.6325 1.4167 26.6208 1.40482C26.609 1.38107 26.5973 1.36325 26.5914 1.33949C26.5855 1.32762 26.5797 1.31574 26.5679 1.30386C26.5562 1.2801 26.5444 1.26229 26.5327 1.23853C26.5268 1.22665 26.521 1.21478 26.5092 1.2029C26.4975 1.17914 26.4799 1.16133 26.4681 1.13757C26.4622 1.12569 26.4505 1.11382 26.4446 1.10194C26.4329 1.07818 26.4153 1.06037 26.3977 1.03661C26.3859 1.02473 26.3801 1.01286 26.3683 1.00098C26.3566 0.983161 26.339 0.965345 26.3272 0.947529C26.3155 0.929712 26.2979 0.917834 26.2861 0.900018C26.2744 0.88814 26.2626 0.870323 26.2509 0.858446C26.2215 0.828752 26.198 0.799057 26.1687 0.769363C26.1393 0.739669 26.11 0.715914 26.0806 0.686219C26.0689 0.674342 26.0513 0.662464 26.0395 0.650586C26.0219 0.638708 26.0102 0.620892 25.9925 0.609014C25.9749 0.591197 25.9573 0.57932 25.9397 0.567442C25.928 0.555564 25.9162 0.549626 25.9045 0.537748C25.881 0.519931 25.8634 0.508053 25.8399 0.490237C25.8282 0.484298 25.8164 0.47242 25.8047 0.466481C25.7812 0.454603 25.7636 0.436787 25.7401 0.424909C25.7283 0.41897 25.7166 0.413032 25.7049 0.401154C25.6814 0.389276 25.6638 0.377398 25.6403 0.365521C25.6285 0.359582 25.6168 0.353643 25.605 0.341765C25.5816 0.329888 25.5639 0.31801 25.5405 0.312071C25.5287 0.306132 25.5111 0.300193 25.4994 0.288315C25.4817 0.276438 25.4583 0.270499 25.4407 0.26456C25.423 0.258621 25.4054 0.246744 25.3878 0.240805L25.335 0.222988C25.3174 0.21705 25.2939 0.205171 25.2763 0.199232C25.2586 0.193294 25.2469 0.187355 25.2293 0.181417C25.2058 0.175478 25.1823 0.163599 25.1647 0.157661C25.153 0.151722 25.1353 0.151722 25.1236 0.145783L25.0531 0.127966C25.0414 0.122027 25.0297 0.122028 25.012 0.116089C24.9886 0.11015 24.9592 0.104211 24.9357 0.098272C24.924 0.098272 24.9122 0.0923337 24.8946 0.0923337C24.8711 0.0863949 24.8418 0.0804553 24.8183 0.0804553C24.8007 0.0804553 24.7889 0.074517 24.7713 0.074517C24.7478 0.0685781 24.7244 0.0685778 24.7009 0.0685778C24.6833 0.0685778 24.6598 0.0626395 24.6422 0.0626395C24.6245 0.0626395 24.6069 0.0567002 24.5893 0.0567002C24.513 0.0507614 24.4308 0.0507614 24.3486 0.0567002C24.331 0.0567002 24.3134 0.0567006 24.2958 0.0626395C24.2781 0.0626395 24.2547 0.0626389 24.237 0.0685778C24.2136 0.0685778 24.1901 0.074517 24.1666 0.074517C24.149 0.074517 24.1372 0.0804553 24.1196 0.0804553C24.0961 0.0863942 24.0668 0.0863949 24.0433 0.0923337C24.0315 0.0923337 24.0198 0.098272 24.0022 0.098272C23.9787 0.104211 23.9494 0.11015 23.9259 0.116089C23.9141 0.122028 23.9024 0.122027 23.8848 0.127966L23.8143 0.145783C23.8026 0.151722 23.785 0.151722 23.7732 0.157661C23.7497 0.163599 23.7262 0.169539 23.7086 0.181417C23.691 0.187355 23.6793 0.193294 23.6617 0.199232C23.644 0.205171 23.6206 0.21705 23.6029 0.222988C23.5853 0.228927 23.5677 0.234866 23.5501 0.246743C23.5325 0.252682 23.5149 0.264561 23.4973 0.270499C23.4797 0.276438 23.4562 0.288316 23.4386 0.294254C23.4268 0.300193 23.4092 0.306132 23.3975 0.31801C23.374 0.329887 23.3564 0.341765 23.3329 0.353643C23.3211 0.359582 23.3094 0.36552 23.2976 0.377398C23.2742 0.389276 23.2507 0.401154 23.2331 0.413032C23.2213 0.41897 23.2096 0.424909 23.1978 0.436787C23.1743 0.448664 23.1509 0.466482 23.1332 0.478359C23.1215 0.484298 23.1098 0.496176 23.098 0.502114C23.0745 0.513992 23.0569 0.531809 23.0334 0.549625C23.0217 0.561503 23.01 0.567442 22.9982 0.57932C22.9806 0.591197 22.963 0.609014 22.9395 0.620892C22.9219 0.632769 22.9101 0.644647 22.8925 0.662463C22.8808 0.674341 22.8632 0.686219 22.8514 0.698097C22.8221 0.721852 22.7927 0.751546 22.7692 0.78124L1.70319 22.078L1.65035 22.1314C1.18065 22.6065 0.945801 23.2301 0.945801 23.8537C0.945801 24.4773 1.18065 25.1009 1.65035 25.576L1.70319 25.6294L22.7692 46.938C23.2448 47.4191 23.873 47.6566 24.4954 47.6507H24.5189C25.8458 47.6507 26.9261 46.5639 26.9261 45.2158V35.7077H51.7438C53.376 35.3691 54.6501 34.0151 54.8908 32.3344V15.4205C54.6795 13.3835 52.9768 11.7919 50.9101 11.7919Z" fill="#E9B1FF"/>
</svg>
