<svg width="136" height="122" viewBox="0 0 136 122" fill="none" xmlns="http://www.w3.org/2000/svg">
<path d="M25.0865 98.8526V96.3526H22.5865H11.3225C6.55526 96.3526 2.57764 92.3708 2.57764 87.3496V12.463C2.57764 7.41927 6.55814 3.43994 11.3225 3.43994H123.81C128.569 3.43994 132.536 7.41366 132.536 12.4629V87.3496C132.536 92.3765 128.572 96.3526 123.81 96.3526H44.8743H43.8209L43.0851 97.1065L25.0865 115.55V98.8526ZM36.954 49.936C36.954 54.4346 40.5448 58.1727 45.0572 58.1727C49.5968 58.1727 53.1991 54.4459 53.1991 49.936C53.1991 45.4104 49.6107 41.6592 45.0572 41.6592C40.5308 41.6592 36.954 45.4218 36.954 49.936ZM59.4439 49.936C59.4439 54.4401 63.0401 58.1727 67.5661 58.1727C72.0925 58.1727 75.6888 54.4403 75.6888 49.936C75.6888 45.4161 72.1065 41.6592 67.5661 41.6592C63.0261 41.6592 59.4439 45.4162 59.4439 49.936ZM81.404 49.936C81.404 54.4402 84.9907 58.1727 89.5362 58.1727C94.0734 58.1727 97.6392 54.4289 97.6392 49.936C97.6392 45.4276 94.0874 41.6592 89.5362 41.6592C84.9766 41.6592 81.404 45.4162 81.404 49.936Z" stroke="#C28BFF" stroke-width="5"/>
</svg>
