<svg width="43" height="43" viewBox="0 0 43 43" fill="none" xmlns="http://www.w3.org/2000/svg">
<g id="Frame" clip-path="url(#clip0_2182_214)">
<path id="Vector" d="M40.311 14.6619L30.2244 12.1865L24.6221 3.25508C24.3661 2.84675 24.021 2.50166 23.6127 2.24569C22.1184 1.30857 20.1471 1.76057 19.2102 3.25508L13.6085 12.1874L3.52185 14.6619C3.06359 14.7744 2.63593 14.9869 2.26958 15.2843C0.899834 16.3962 0.690915 18.4079 1.80279 19.7774L8.47322 27.9909L7.82875 38.2936C7.82459 38.36 7.8225 38.4265 7.8225 38.4931C7.8225 40.2576 9.25286 41.6877 11.0173 41.6877L11.0177 41.6865C11.4066 41.6871 11.7923 41.6165 12.1559 41.4784L21.9165 37.7578L31.6772 41.4796C32.046 41.6196 32.4374 41.6902 32.8318 41.6879C33.0021 41.6875 33.172 41.6735 33.34 41.6461C35.0849 41.3617 36.2689 39.7166 35.9843 37.9717L35.3599 27.9909L42.0299 19.7778C42.3277 19.4111 42.5405 18.9829 42.6529 18.5241C43.073 16.8109 42.0245 15.0816 40.311 14.6619ZM25.5136 29.8358C24.5575 30.7581 23.3675 31.219 21.9436 31.219C20.5943 31.219 19.4755 30.831 18.5874 30.0545C17.699 29.2782 17.1839 28.2627 17.0414 27.0084L19.8078 26.6728C19.8959 27.3781 20.1333 27.9172 20.5197 28.29C20.9061 28.6631 21.3741 28.8495 21.9232 28.8495C22.5133 28.8495 23.0097 28.6258 23.4134 28.1782C23.8168 27.7307 24.0184 27.1273 24.0184 26.3679C24.0184 25.6492 23.8251 25.0796 23.4388 24.6592C23.0524 24.2389 22.581 24.0287 22.0251 24.0287C21.6589 24.0287 21.2215 24.1 20.713 24.2422L21.0284 21.9131C21.8014 21.9335 22.3912 21.7656 22.7983 21.4096C23.2053 21.0536 23.4086 20.5808 23.4086 19.9907C23.4086 19.4889 23.2592 19.089 22.9611 18.7905C22.6627 18.4922 22.2661 18.3431 21.7712 18.3431C21.2829 18.3431 20.8659 18.5127 20.5201 18.8516C20.1744 19.1907 19.9642 19.6856 19.8896 20.3365L17.2555 19.8891C17.4386 18.9874 17.7148 18.2669 18.0843 17.7278C18.4539 17.1887 18.9692 16.7651 19.6303 16.4564C20.2914 16.1479 21.0321 15.9935 21.8526 15.9935C23.2563 15.9935 24.3817 16.441 25.2293 17.336C25.9277 18.0684 26.2768 18.8955 26.2768 19.8176C26.2768 21.1263 25.5613 22.1705 24.1307 22.9504C24.9851 23.1335 25.6681 23.5438 26.1801 24.181C26.6919 24.8184 26.9481 25.588 26.9481 26.4897C26.9477 27.7984 26.4697 28.9136 25.5136 29.8358Z" fill="#E39DFF"/>
</g>
<defs>
<clipPath id="clip0_2182_214">
<rect width="42.3098" height="42.3098" fill="white" transform="translate(0.687012 0.598877)"/>
</clipPath>
</defs>
</svg>
