<svg width="43" height="43" viewBox="0 0 43 43" fill="none" xmlns="http://www.w3.org/2000/svg">
<g id="Frame" clip-path="url(#clip0_2182_209)">
<path id="Vector" d="M21.5392 42.5889C9.85604 42.5889 0.384277 33.1171 0.384277 21.434C0.384277 9.75081 9.85604 0.279053 21.5392 0.279053C33.2223 0.279053 42.6941 9.75081 42.6941 21.434C42.6941 33.1171 33.2223 42.5889 21.5392 42.5889ZM35.7779 17.4954C36.515 17.046 38.2929 16.6774 35.6481 15.5567C32.6084 14.3381 26.497 12.1117 23.823 11.0389C22.3243 10.3084 21.4621 10.6581 19.8299 11.2994C17.0732 12.3129 11.8719 14.1727 8.72589 15.3329C6.31423 16.212 6.45809 16.8692 8.68735 17.9044C12.0279 19.4567 18.7561 21.8411 20.1693 22.3582C21.5824 22.8753 22.6092 22.8791 24.0336 22.2548C25.459 21.6305 27.519 20.8303 33.9435 18.2589V22.0733L32.4297 23.4103L34.6411 25.5521L36.8253 23.3454L35.7779 22.3272V17.4954ZM24.3439 24.1672C23.0041 24.8535 21.1302 24.6777 19.6531 24.1672C17.2574 23.3708 15.2773 22.771 13.5135 22.0733V29.1945C13.5135 29.1945 16.5354 32.2465 22.1287 32.2465C27.3225 32.2465 30.2776 29.1945 30.2776 29.1945V21.5656C27.9929 22.5152 25.898 23.5448 24.3439 24.1672Z" fill="#E39DFF"/>
</g>
<defs>
<clipPath id="clip0_2182_209">
<rect width="42.3098" height="42.3098" fill="white" transform="translate(0.384277 0.279053)"/>
</clipPath>
</defs>
</svg>
