<svg width="43" height="43" viewBox="0 0 43 43" fill="none" xmlns="http://www.w3.org/2000/svg">
<g clip-path="url(#clip0_2182_204)">
<path d="M21.5392 0.598877C9.85441 0.598877 0.384277 10.069 0.384277 21.7538C0.384277 33.4386 9.85441 42.9087 21.5392 42.9087C33.224 42.9087 42.6941 33.4386 42.6941 21.7538C42.6941 10.069 33.224 0.598877 21.5392 0.598877ZM17.1264 29.6869C16.5314 29.691 15.986 29.3398 15.7588 28.7944C15.6431 28.5176 15.4737 28.2614 15.2547 28.0424C15.0316 27.8234 14.7754 27.6499 14.4944 27.5342C13.9449 27.307 13.5978 26.7616 13.5978 26.1707C13.5978 25.1047 14.6886 24.3858 15.6679 24.8031C16.2918 25.0675 16.862 25.4518 17.3578 25.9435C17.8453 26.431 18.2296 26.9971 18.494 27.6168C18.9114 28.5961 18.2007 29.6869 17.1347 29.691L17.1264 29.6869ZM24.1794 29.6869C23.4357 29.6869 22.8077 29.1415 22.7044 28.406C22.4275 26.4434 21.5309 24.6295 20.1013 23.1999C18.6717 21.7703 16.8496 20.8654 14.8787 20.5928C14.1432 20.4895 13.5978 19.8614 13.5978 19.1218C13.5978 18.2211 14.3911 17.5269 15.2836 17.6468C17.8949 18.0062 20.3079 19.2003 22.2085 21.0968C24.1009 22.9892 25.2909 25.3939 25.6545 27.997C25.7743 28.8894 25.0802 29.6828 24.1794 29.6869ZM31.063 29.6786C30.2904 29.6828 29.6541 29.0878 29.588 28.3151C29.2698 24.551 27.6502 21.0555 24.9479 18.3574C22.2375 15.647 18.7337 14.0273 14.9613 13.7133C14.1928 13.6472 13.5978 13.0109 13.5978 12.2423V12.2217C13.5978 11.3623 14.3292 10.6805 15.1886 10.7508C17.1016 10.9078 18.9692 11.354 20.7541 12.0771C23.1134 13.0357 25.233 14.4405 27.0469 16.2543C28.8608 18.0682 30.2656 20.1796 31.22 22.5347C31.9472 24.3197 32.3894 26.179 32.5505 28.092C32.6207 28.9473 31.9431 29.6828 31.0837 29.6828L31.063 29.6786Z" fill="#E39DFF"/>
</g>
<defs>
<clipPath id="clip0_2182_204">
<rect width="42.3098" height="42.3098" fill="white" transform="translate(0.384277 0.598877)"/>
</clipPath>
</defs>
</svg>
