<svg width="46" height="45" viewBox="0 0 46 45" fill="none" xmlns="http://www.w3.org/2000/svg">
<g id="Frame">
<path id="Vector" d="M31.0339 6.11279C27.9187 6.11279 24.9805 8.4803 22.8782 10.7062C20.7749 8.48007 17.8376 6.11279 14.7225 6.11279C8.5345 6.11279 3.50098 9.80189 3.50098 15.9899C3.50098 17.2572 3.72238 19.0953 4.15771 20.3204C4.41432 21.0422 4.74613 21.739 5.14457 22.3924C5.54861 23.0551 6.01987 23.6743 6.54386 24.233L22.9398 39.9239L39.2394 24.1941L39.3274 24.1054C39.789 23.598 40.2062 23.0454 40.5678 22.4625C40.9983 21.7696 41.3514 21.0284 41.62 20.2606C42.0407 19.0543 42.2544 17.2359 42.2544 15.9899C42.2545 9.80189 37.2209 6.11279 31.0339 6.11279ZM22.9437 27.4253C16.0109 27.4253 11.8669 21.3237 11.8669 21.3237C11.8669 21.3237 15.7049 14.459 22.9437 14.459C30.6166 14.459 34.0214 21.3237 34.0214 21.3237C34.0214 21.3237 29.8769 27.4253 22.9437 27.4253Z" fill="#E39DFF"/>
<path id="Vector_2" d="M22.9503 17.0483C20.743 17.0483 18.9536 18.7945 18.9536 20.9481C18.9536 23.1018 20.743 24.8479 22.9503 24.8479C25.1574 24.8479 26.9469 23.1018 26.9469 20.9481C26.9469 18.7945 25.1576 17.0483 22.9503 17.0483ZM22.9439 22.8286C21.9775 22.8286 21.1941 22.0516 21.1941 21.0934C21.1941 20.135 21.9775 19.358 22.9439 19.358C23.9103 19.358 24.6937 20.135 24.6937 21.0934C24.6937 22.0515 23.9103 22.8286 22.9439 22.8286Z" fill="#E39DFF"/>
</g>
</svg>
