<svg width="43" height="43" viewBox="0 0 43 43" fill="none" xmlns="http://www.w3.org/2000/svg">
<g id="Frame">
<path id="Vector" d="M24.3225 27.3391C23.1954 23.1159 26.7574 19.0088 31.8865 17.9601C30.0801 11.8361 24.4072 7.36076 17.6767 7.36076C9.49216 7.36076 2.85791 13.9707 2.85791 22.1257C2.85791 30.2806 9.49216 36.8914 17.6767 36.8914C22.2127 36.8914 26.2678 34.8552 28.986 31.6555C26.6839 30.9908 24.914 29.5557 24.3225 27.3391ZM17.6767 27.9426C14.4528 27.9426 11.8387 25.3378 11.8387 22.1258C11.8387 18.9131 14.4528 16.3092 17.6767 16.3092C20.8998 16.3092 23.5139 18.913 23.5139 22.1258C23.5139 25.3378 20.8998 27.9426 17.6767 27.9426ZM40.0082 12.1973C36.2536 4.34396 29.9993 5.64702 29.9993 5.64702L27.7043 5.51489C35.7879 16.1453 35.2345 20.3809 34.9726 21.2689C33.8652 20.7248 32.448 20.5849 31.0148 20.989C28.3028 21.7552 26.5752 24.1675 27.1557 26.3771C27.7359 28.5872 30.4047 29.7574 33.1165 28.991C35.2158 28.3972 36.72 26.8184 37.026 25.1087C40.0039 20.5357 33.0637 9.52568 33.0637 9.52568L40.0082 12.1973ZM17.6767 18.9936C15.94 18.9936 14.5329 20.3961 14.5329 22.1257C14.5329 23.856 15.94 25.2588 17.6767 25.2588C19.4122 25.2588 20.8193 23.856 20.8193 22.1257C20.8193 20.3961 19.4122 18.9936 17.6767 18.9936Z" fill="#E39DFF"/>
</g>
</svg>
