<svg width="90" height="90" viewBox="0 0 90 90" fill="none" xmlns="http://www.w3.org/2000/svg">
<path opacity="0.8" d="M44.9878 89.4207C69.4884 89.4207 89.4131 69.4904 89.4131 44.9954C89.4131 20.5004 69.4884 0.570068 44.9878 0.570068C20.4928 0.570068 0.5625 20.5004 0.5625 44.9954C0.5625 69.4904 20.4928 89.4207 44.9878 89.4207ZM30.3663 42.7019L46.2595 27.0309C46.8579 26.4397 47.6664 26.1101 48.5076 26.1142C49.3487 26.1184 50.1539 26.456 50.7465 27.0531C51.0402 27.3477 51.2727 27.6976 51.4307 28.0824C51.5886 28.4673 51.6689 28.8796 51.6668 29.2957C51.6647 29.7117 51.5804 30.1232 51.4186 30.5065C51.2569 30.8898 51.0209 31.2373 50.7242 31.529L37.0968 44.9676L50.6132 58.4785C50.9068 58.7723 51.1395 59.1212 51.2979 59.5051C51.4563 59.8891 51.5373 60.3006 51.5363 60.7159C51.5352 61.1313 51.4522 61.5424 51.2919 61.9255C51.1315 62.3087 50.8971 62.6564 50.6021 62.9488C50.0066 63.5429 49.1998 63.8765 48.3586 63.8765C47.5174 63.8765 46.7106 63.5429 46.1151 62.9488L30.3608 47.1833L30.3552 47.1722C30.0596 46.8782 29.8254 46.5285 29.666 46.1432C29.5067 45.758 29.4254 45.3449 29.427 44.928C29.4285 44.5112 29.5128 44.0987 29.6751 43.7147C29.8373 43.3306 30.0741 42.9826 30.3719 42.6908L30.3663 42.7019Z" fill="#E39DFF"/>
</svg>
