<svg width="90" height="90" viewBox="0 0 90 90" fill="none" xmlns="http://www.w3.org/2000/svg">
<path opacity="0.8" d="M45.0449 0.690372C20.5443 0.69037 0.619582 20.6207 0.619579 45.1157C0.619577 69.6107 20.5443 89.541 45.0449 89.541C69.5399 89.541 89.4702 69.6107 89.4702 45.1157C89.4702 20.6207 69.5399 0.690375 45.0449 0.690372ZM59.6664 47.4091L43.7732 63.0802C43.1748 63.6714 42.3663 64.001 41.5252 63.9969C40.684 63.9927 39.8788 63.655 39.2863 63.058C38.9925 62.7633 38.76 62.4135 38.6021 62.0286C38.4441 61.6438 38.3639 61.2314 38.3659 60.8154C38.368 60.3994 38.4523 59.9879 38.6141 59.6046C38.7759 59.2213 39.0119 58.8738 39.3085 58.5821L52.9359 45.1435L39.4195 31.6326C39.1259 31.3388 38.8933 30.9899 38.7348 30.6059C38.5764 30.222 38.4954 29.8105 38.4964 29.3952C38.4975 28.9798 38.5805 28.5687 38.7409 28.1856C38.9012 27.8024 39.1356 27.4546 39.4307 27.1623C40.0261 26.5682 40.833 26.2345 41.6741 26.2345C42.5153 26.2345 43.3221 26.5682 43.9176 27.1623L59.6719 42.9277L59.6775 42.9388C59.9731 43.2328 60.2073 43.5826 60.3667 43.9678C60.526 44.3531 60.6073 44.7661 60.6058 45.183C60.6042 45.5999 60.5199 46.0124 60.3577 46.3964C60.1955 46.7805 59.9586 47.1285 59.6608 47.4203L59.6664 47.4091Z" fill="#B986FF"/>
</svg>
