<svg width="71" height="71" viewBox="0 0 71 71" fill="none" xmlns="http://www.w3.org/2000/svg">
<path d="M60.4047 10.4388H10.7383C8.00078 10.4388 5.77344 12.6578 5.77344 15.3995V47.638C5.77344 50.3712 8.00078 52.59 10.7383 52.59H15.7117V62.4222L25.5524 52.59H60.4047C63.1422 52.59 65.361 50.3712 65.361 47.638V15.3995C65.3611 12.6578 63.1422 10.4388 60.4047 10.4388ZM25.6332 34.0012C24.2729 34.0012 23.1592 32.8959 23.1592 31.5315C23.1592 30.1542 24.2729 29.0446 25.6332 29.0446C27.0103 29.0446 28.1242 30.1542 28.1242 31.5315C28.1242 32.8959 27.0103 34.0012 25.6332 34.0012ZM35.5714 34.0012C34.2028 34.0012 33.0891 32.8959 33.0891 31.5315C33.0891 30.1542 34.2028 29.0446 35.5714 29.0446C36.9403 29.0446 38.054 30.1542 38.054 31.5315C38.054 32.8959 36.9403 34.0012 35.5714 34.0012ZM45.2718 34.0012C43.8945 34.0012 42.7851 32.8959 42.7851 31.5315C42.7851 30.1542 43.8945 29.0446 45.2718 29.0446C46.6405 29.0446 47.7457 30.1542 47.7457 31.5315C47.7457 32.8959 46.6405 34.0012 45.2718 34.0012Z" fill="#2C2C2C"/>
</svg>
