<svg width="22" height="22" viewBox="0 0 22 22" fill="none" xmlns="http://www.w3.org/2000/svg">
<path id="Vector" d="M11 0C4.9249 0 0 4.9249 0 11C0 17.0751 4.9249 22 11 22C17.0751 22 22 17.0751 22 11C22 4.92487 17.0751 0 11 0ZM18.2276 9.59497C16.8073 9.61085 15.4817 9.18164 14.314 8.3868V13.9667C14.314 16.4466 12.621 18.5769 10.2205 19.1333C6.94569 19.8804 4.17572 17.5117 3.82599 14.6821C3.46035 11.8524 5.2634 9.3724 8.02952 8.81597C8.57001 8.70472 9.35886 8.70472 9.80072 8.80009V11.7887C9.67448 11.7569 9.55366 11.7252 9.4265 11.7093C8.34551 11.5185 7.29991 12.059 6.87067 13.0447C6.4415 14.0303 6.72937 15.1749 7.60379 15.8425C8.33504 16.4148 9.14674 16.4942 9.97333 16.1127C10.8 15.7471 11.2405 15.0795 11.3359 14.1734C11.3518 14.0462 11.3472 13.9031 11.3472 13.76V3.02941C11.3472 2.72739 11.3573 2.73083 11.6594 2.73083H14.0281C14.2029 2.73083 14.2666 2.76088 14.2825 2.96758C14.4096 4.81166 15.81 6.38462 17.6063 6.62304C17.7971 6.65482 18.0068 6.66985 18.2277 6.68575V9.59494H18.2276V9.59497Z" fill="white"/>
</svg>
