<svg width="33" height="33" viewBox="0 0 33 33" fill="none" xmlns="http://www.w3.org/2000/svg">
<path d="M27.6016 6.3125H4.93047C3.66356 6.3125 2.59668 7.37894 2.59668 8.64535V24.642C2.59668 25.9084 3.66356 26.9749 4.93047 26.9749H27.6016C28.8685 26.9749 29.9354 25.9084 29.9354 24.642V8.64535C29.9354 7.37894 28.8685 6.3125 27.6016 6.3125ZM4.93047 8.31208H27.6016C27.8017 8.31208 27.935 8.44539 27.935 8.64535V9.44518L16.266 16.777L4.59707 9.44518V8.64535C4.59707 8.44539 4.73043 8.31208 4.93047 8.31208ZM27.6016 24.9753H4.93047C4.73043 24.9753 4.59707 24.842 4.59707 24.642V11.778L15.7326 18.7766C15.866 18.9099 16.066 18.9099 16.266 18.9099C16.4661 18.9099 16.6661 18.8432 16.7995 18.7766L27.935 11.778V24.642C27.935 24.842 27.8017 24.9753 27.6016 24.9753Z" fill="white"/>
</svg>
