<svg width="22" height="22" viewBox="0 0 22 22" fill="none" xmlns="http://www.w3.org/2000/svg">
<path id="Vector" d="M11 22C4.92456 22 0 17.0754 0 11C0 4.92456 4.92456 0 11 0C17.0754 0 22 4.92456 22 11C22 17.0754 17.0754 22 11 22ZM6.76019 9.75494V15.0446H8.75394V9.75562H6.76019V9.75494ZM7.75706 8.96706C8.3105 8.96706 8.75394 8.55456 8.75394 8.03894C8.75394 7.52331 8.3105 7.11013 7.75706 7.11013C7.20294 7.11013 6.76019 7.52263 6.76019 8.03825C6.76019 8.55387 7.20294 8.96706 7.75706 8.96706ZM15.2852 12.1467C15.2852 10.7216 14.9531 9.76456 13.1718 9.76456C12.3166 9.76456 11.7329 10.0643 11.5012 10.4775H11.4806V9.76456H9.89106V15.0542H11.5417V12.4279C11.5417 11.7336 11.6827 11.0681 12.5984 11.0681C13.5046 11.0681 13.5747 11.8559 13.5747 12.4747V15.0542H15.2756V12.1461H15.2859V12.1467H15.2852Z" fill="white"/>
</svg>
