<svg width="63" height="63" viewBox="0 0 63 63" fill="none" xmlns="http://www.w3.org/2000/svg">
<g clip-path="url(#clip0_2412_2)">
<path d="M62.8611 22.6054C62.8611 12.3057 54.7771 3.92224 44.8551 3.92224C39.954 3.92224 35.3155 6.03652 31.9667 9.64328C28.6133 6.03658 23.9702 3.92224 19.0782 3.92224C9.15165 3.92224 1.07227 12.3011 1.07227 22.6054C1.07227 22.9509 1.10453 23.2595 1.13213 23.5129C1.12754 23.5958 1.12295 23.6787 1.12295 23.7662C1.12295 25.5902 1.5651 27.594 2.43569 29.7222C2.46336 29.8004 2.49097 29.8742 2.52323 29.9431C8.00933 43.1034 29.1292 58.2444 30.0273 58.9398C30.5848 59.3682 31.248 59.5801 31.916 59.5801C32.5931 59.5801 33.2611 59.3591 33.823 58.9215C34.5922 58.3227 52.6074 45.356 59.7564 33.0893C60.0281 32.6748 60.2308 32.2741 60.4105 31.9285C60.4657 31.818 60.5164 31.7075 60.5763 31.6015L60.5993 31.5508C60.6224 31.5094 60.65 31.4633 60.6776 31.4264C61.106 30.5926 61.4468 29.8188 61.7187 29.0634C62.4601 27.1195 62.8242 25.3875 62.8242 23.7707C62.8242 23.6464 62.8195 23.5358 62.8104 23.4436C62.8336 23.2319 62.8611 22.9463 62.8611 22.6054Z" fill="#2C2C2C"/>
</g>
<defs>
<clipPath id="clip0_2412_2">
<rect width="61.9219" height="61.9218" fill="white" transform="translate(0.966797 0.790283)"/>
</clipPath>
</defs>
</svg>
