<svg width="68" height="93" viewBox="0 0 68 93" fill="none" xmlns="http://www.w3.org/2000/svg">
<rect x="0.544922" y="28.3733" width="63.9193" height="63.9193" rx="17" fill="#DFB0FF"/>
<path d="M48.8427 51.1746H16.8518C16.1184 51.1746 15.5254 50.5676 15.5254 49.8168C15.5254 49.066 16.1184 48.459 16.8518 48.459H48.8427C49.5762 48.459 50.1692 49.066 50.1692 49.8168C50.1692 50.5676 49.5762 51.1746 48.8427 51.1746ZM34.3688 61.3741H16.8518C16.1184 61.3741 15.5254 60.7671 15.5254 60.0163C15.5254 59.2655 16.1184 58.6585 16.8518 58.6585H34.3688C35.1022 58.6585 35.6952 59.2655 35.6952 60.0163C35.6952 60.7671 35.1022 61.3741 34.3688 61.3741ZM43.5096 71.965H16.8518C16.1184 71.965 15.5254 71.358 15.5254 70.6072C15.5254 69.8564 16.1184 69.2494 16.8518 69.2494H43.5096C44.2431 69.2494 44.8361 69.8564 44.8361 70.6072C44.8361 71.358 44.2431 71.965 43.5096 71.965Z" fill="white"/>
</svg>
