<svg width="33" height="33" viewBox="0 0 33 33" fill="none" xmlns="http://www.w3.org/2000/svg">
<path d="M7.07228 3.5984C5.92805 4.05964 5.1679 4.80081 4.05302 6.19786C1.28314 9.67313 3.75962 16.5957 10.1395 22.9197L10.4703 23.2436C16.4715 29.0104 24.0663 31.5086 26.9642 28.9944L27.0589 28.9065L27.0135 28.9438C27.84 28.2764 28.5212 27.4471 29.0153 26.507C30.0515 24.5074 29.7701 22.4185 27.7284 20.7908C24.7891 18.4473 22.8154 18.3673 20.8697 20.1509L20.651 20.3562L20.0882 20.9135C19.8441 20.8628 19.4667 20.6842 19.0026 20.3856C18.0771 19.7884 16.9236 18.7952 15.6086 17.4928C14.2977 16.1918 13.2935 15.0493 12.6921 14.1309L12.5707 13.9402C12.4137 13.6972 12.2853 13.4369 12.188 13.1644L12.1586 13.0578L12.7254 12.4979L12.9321 12.2806C14.7285 10.3517 14.6484 8.39473 12.2866 5.48067C10.6823 3.50109 8.8593 2.87722 7.07228 3.5984ZM10.1956 7.14433L10.5463 7.58423C11.7199 9.10525 11.7305 9.61048 11.0584 10.373L10.7983 10.6503L10.1382 11.3008C8.7166 12.7085 9.34873 14.4975 11.4465 16.9623L11.8866 17.4648L12.3627 17.9861L12.616 18.2527L13.1468 18.8032L13.7149 19.3738L14.0043 19.659L14.5698 20.2043L15.1139 20.7135C15.2926 20.8761 15.4673 21.0334 15.6393 21.1854L16.1461 21.62C18.6346 23.6995 20.4349 24.3247 21.8565 22.9224L22.514 22.2665L22.6874 22.1025C23.4462 21.4094 23.9156 21.312 25.2105 22.2265L25.6039 22.5158L26.0494 22.8624C27.0255 23.6409 27.1202 24.3487 26.6308 25.2925C26.4045 25.7105 26.1218 26.0954 25.7906 26.4363L25.5639 26.6656L25.3906 26.8256L25.2239 26.9709C24.7731 27.4174 23.0394 27.4601 20.811 26.7296C17.9758 25.7991 14.8725 23.8528 12.0359 21.0401C6.50017 15.5519 4.49044 9.93574 6.15476 7.84685C6.98159 6.80973 7.51903 6.28717 8.08181 6.06055C8.6846 5.8166 9.28738 6.02323 10.1956 7.14433Z" fill="white"/>
</svg>
