<svg width="73" height="73" viewBox="0 0 73 73" fill="none" xmlns="http://www.w3.org/2000/svg">
<path d="M49.6537 17.1272L54.3213 8.78396C54.629 8.2335 54.4329 7.53813 53.8823 7.23065C53.3308 6.92302 52.6364 7.11919 52.329 7.66966L47.619 16.0904C44.3149 14.5852 40.645 13.747 36.7801 13.747C32.9149 13.747 29.245 14.5852 25.9409 16.0902L21.2311 7.66951C20.9235 7.11905 20.2282 6.92295 19.6777 7.23051C19.1273 7.53806 18.9312 8.23343 19.2387 8.78382L23.9063 17.1269C15.9255 21.6425 10.5361 30.2274 10.5361 40.0822C10.5361 54.6273 22.2864 66.4199 36.7801 66.4199C51.2727 66.4199 63.0242 54.6274 63.0242 40.0822C63.0242 30.2275 57.6343 21.6426 49.6537 17.1272ZM25.4823 36.7528C23.91 36.7528 22.6297 35.4769 22.6297 33.9001C22.6297 32.3245 23.9102 31.0476 25.4823 31.0476C27.0545 31.0476 28.3348 32.3245 28.3348 33.9001C28.3348 35.4769 27.0545 36.7528 25.4823 36.7528ZM48.078 36.7528C46.5067 36.7528 45.2254 35.4769 45.2254 33.9001C45.2254 32.3245 46.5067 31.0476 48.078 31.0476C49.6581 31.0476 50.9306 32.3245 50.9306 33.9001C50.9306 35.4769 49.6581 36.7528 48.078 36.7528Z" fill="#2C2C2C"/>
</svg>
