<svg width="76" height="76" viewBox="0 0 76 76" fill="none" xmlns="http://www.w3.org/2000/svg">
<path d="M26.4633 61.2993C23.86 61.2993 21.7622 63.397 21.7622 66.0003C21.7622 68.6036 23.86 70.7014 26.4633 70.7014C29.0665 70.7014 31.1643 68.6036 31.1643 66.0003C31.1643 63.397 29.0665 61.2993 26.4633 61.2993Z" fill="white"/>
<path d="M59.3832 61.2993C56.7799 61.2993 54.6821 63.397 54.6821 66.0003C54.6821 68.6036 56.7799 70.7014 59.3832 70.7014C61.9865 70.7014 64.0842 68.6036 64.0842 66.0003C64.0842 63.397 61.9738 61.2993 59.3832 61.2993Z" fill="white"/>
<path d="M69.3921 14.036C68.1915 12.6711 66.5361 11.9382 64.7416 11.9382H17.6425L17.4783 10.9777C17.0612 7.55306 14.0536 4.8866 10.6289 4.8866H7.65912C6.35749 4.8866 5.30859 5.93549 5.30859 7.23712C5.30859 8.53876 6.35749 9.58765 7.65912 9.58765H10.6162C11.6399 9.58765 12.6887 10.5228 12.8151 11.6602L15.0898 24.7776L19.0832 52.8449C19.5002 56.2696 22.47 58.9487 25.8694 58.9487H64.0844C65.3861 58.9487 66.4349 57.8998 66.4349 56.5982C66.4349 55.2966 65.3861 54.2477 64.0844 54.2477H25.8568C24.8584 54.2477 23.8727 53.3252 23.7337 52.2257L23.3419 49.4834L60.6345 47.1835C64.0212 47.1835 67.0036 44.5044 67.3954 41.206L71.1234 20.026C71.3887 17.764 70.7695 15.5777 69.3921 14.036Z" fill="white"/>
</svg>
