<svg width="41" height="41" viewBox="0 0 41 41" fill="none" xmlns="http://www.w3.org/2000/svg">
<path id="&#230;&#183;&#152;&#229;&#174;&#157;&#229;&#155;&#190;&#230;&#160;&#135;&#233;&#161;&#181;&#232;&#132;&#154;" d="M20.3008 0.510742C16.3452 0.510742 12.4784 1.68372 9.18938 3.88135C5.9004 6.07898 3.33695 9.20255 1.8232 12.8571C0.309447 16.5116 -0.0866197 20.5329 0.685085 24.4125C1.45679 28.2922 3.3616 31.8558 6.15865 34.6529C8.9557 37.4499 12.5194 39.3547 16.399 40.1264C20.2786 40.8981 24.2999 40.5021 27.9545 38.9883C31.609 37.4746 34.7325 34.9111 36.9302 31.6221C39.1278 28.3332 40.3008 24.4664 40.3008 20.5107C40.3008 15.2064 38.1936 10.1193 34.4429 6.36861C30.6922 2.61788 25.6051 0.510742 20.3008 0.510742ZM10.7008 9.31074C11.1755 9.31074 11.6395 9.4515 12.0342 9.71521C12.4288 9.97893 12.7364 10.3538 12.9181 10.7923C13.0997 11.2308 13.1473 11.7134 13.0547 12.179C12.9621 12.6445 12.7335 13.0721 12.3978 13.4078C12.0622 13.7434 11.6346 13.972 11.169 14.0646C10.7035 14.1572 10.2209 14.1097 9.78235 13.9281C9.3438 13.7464 8.96898 13.4388 8.70526 13.0441C8.44155 12.6494 8.30079 12.1854 8.30079 11.7107C8.30342 11.075 8.55712 10.4661 9.00664 10.0166C9.45616 9.56707 10.0651 9.31337 10.7008 9.31074ZM9.62079 30.5107L5.56079 27.5107C5.56079 27.5107 11.2608 22.8307 10.9308 21.2807C10.6008 19.7307 6.69079 17.7907 6.69079 17.7907L8.51079 15.2107C8.51079 15.2107 13.1908 18.2707 13.5108 20.6907C13.8308 23.1107 9.62079 30.5107 9.62079 30.5107ZM33.7608 25.9407C33.6357 26.823 33.2971 27.6613 32.7742 28.3828C32.2514 29.1043 31.5602 29.6872 30.7608 30.0807C28.1408 31.1507 24.1008 30.3507 24.1008 30.3507L24.3008 28.6407C25.5928 28.9177 26.9288 28.9177 28.2208 28.6407C28.6473 28.5227 29.0424 28.3118 29.3778 28.023C29.7132 27.7343 29.9806 27.375 30.1608 26.9707V14.9707C30.0473 14.5318 29.8462 14.1203 29.5695 13.7611C29.2928 13.4019 28.9463 13.1025 28.5508 12.8807C27.1508 12.0207 26.4508 12.1507 24.9508 12.3407C23.6338 12.6286 22.3527 13.0612 21.1308 13.6307L19.8508 16.1507H28.5508V17.8707H23.2208V20.0207H28.7608V21.5307L23.3008 21.8107V25.8907L25.8908 24.7607L25.6708 22.9907L27.7708 22.5607L29.3208 26.6407L26.7508 27.8007L26.4208 26.3507C26.4208 26.3507 21.5808 28.4007 19.6208 28.5107C17.6608 28.6207 15.7508 28.2107 14.8108 26.8907C13.8708 25.5707 14.0908 22.8907 14.0908 22.8907L17.5608 22.9807C17.3969 23.8461 17.542 24.7414 17.9708 25.5107C18.2584 25.8029 18.612 26.0217 19.0018 26.1487C19.3916 26.2758 19.8062 26.3073 20.2108 26.2407V21.7007L14.8408 21.5107V20.0807H20.3008L20.2408 17.9307L18.5608 17.5907C18.5608 17.5907 17.1608 19.7807 16.2408 19.7107C15.3208 19.6407 15.1908 18.4207 15.1908 18.4207L18.1908 14.7807L16.5808 14.6107L14.1208 17.5107L12.3008 15.8507C13.219 14.9915 14.0133 14.0088 14.6608 12.9307C15.2894 11.8651 15.7577 10.7128 16.0508 9.51074L19.0508 10.6907L18.1908 12.3507C18.1908 12.3507 18.4108 12.5707 19.1908 12.4607C19.9708 12.3507 24.8808 9.89074 28.2608 10.4607C31.6408 11.0307 33.8008 13.7307 33.8008 15.8207L33.7608 25.9407Z" fill="white"/>
</svg>
