<svg width="22" height="22" viewBox="0 0 22 22" fill="none" xmlns="http://www.w3.org/2000/svg">
<g id="mx_n_1721633937116" clip-path="url(#clip0_2226_23)">
<path id="Vector" d="M21.9457 11.0592C21.9457 16.5599 17.8685 21.1073 12.5717 21.8453C11.4891 21.9952 10.3902 21.9836 9.31094 21.8109C4.12569 20.9762 0.165039 16.4797 0.165039 11.0592C0.165039 5.04407 5.04142 0.16748 11.0561 0.16748C17.0711 0.16748 21.9472 5.04386 21.9472 11.059H21.9457V11.0592Z" fill="white"/>
<path id="Vector_2" d="M4.58215 4.97119L9.6049 11.6866L4.55078 17.147H5.68868L10.114 12.3667L13.6891 17.147H17.5602L12.2551 10.0536L16.9597 4.97119H15.822L11.747 9.37359L8.45415 4.97119H4.58215ZM6.25502 5.80915H8.03288L15.8858 16.309H14.1077L6.2548 5.80937L6.25502 5.80915Z" fill="#E49FFF"/>
</g>
<defs>
<clipPath id="clip0_2226_23">
<rect width="22" height="22" fill="white"/>
</clipPath>
</defs>
</svg>
