<svg width="26" height="16" viewBox="0 0 26 16" fill="none" xmlns="http://www.w3.org/2000/svg">
<rect y="0.777771" width="26" height="14.4444" rx="7.22222" fill="#E1ABFF" fill-opacity="0.67"/>
<rect x="0.5" y="1.27777" width="25" height="13.4444" rx="6.72222" stroke="#B885FE" stroke-opacity="0.48"/>
<g clip-path="url(#clip0_2182_174)">
<path d="M7.66999 6.55555C7.42377 6.55555 7.22233 6.48257 7.22233 6.39338L7.22233 5.9955C7.22233 5.9063 7.42377 5.83333 7.66999 5.83333L17.608 5.83333C17.8542 5.83333 18.0557 5.90631 18.0557 5.9955L18.0557 6.39338C18.0557 6.48257 17.8542 6.55555 17.608 6.55555L7.66999 6.55555Z" fill="white"/>
<path d="M17.8921 7.25907C18.1509 7.25907 18.2362 7.35505 18.0816 7.47238L12.9449 11.3711C12.7904 11.4884 12.5374 11.4884 12.3828 11.3711L7.2462 7.47238C7.09163 7.35505 7.1769 7.25907 7.43571 7.25907L17.8921 7.25907Z" fill="white"/>
</g>
<defs>
<clipPath id="clip0_2182_174">
<rect width="9.38889" height="16.6111" fill="white" transform="translate(20.9443 3.66666) rotate(90)"/>
</clipPath>
</defs>
</svg>
