<svg width="26" height="25" viewBox="0 0 26 25" fill="none" xmlns="http://www.w3.org/2000/svg">
<path d="M12.9725 0.886719C6.31152 0.886719 0.911133 6.28711 0.911133 12.948C0.911133 19.609 6.31152 25.0094 12.9725 25.0094C19.6334 25.0094 25.0338 19.609 25.0338 12.948C25.0365 6.28711 19.6361 0.886719 12.9725 0.886719ZM20.6834 8.89023L11.6709 17.9027L11.1623 18.4113C10.6264 18.9473 9.75684 18.9473 9.2209 18.4113L8.71231 17.9027L5.24512 14.4355C4.79941 13.9898 4.84043 13.2352 5.3709 12.8469C5.79199 12.5406 6.37988 12.609 6.74629 12.9781L10.1889 16.4207L19.2205 7.38906C19.6662 6.94336 20.4209 6.98438 20.8092 7.51484C21.1209 7.93594 21.0498 8.52383 20.6834 8.89023Z" fill="#E39DFF"/>
</svg>
