<svg width="23" height="22" viewBox="0 0 23 22" fill="none" xmlns="http://www.w3.org/2000/svg">
<path d="M18.9514 3.21572C16.9403 1.20564 14.2675 0.0986023 11.4235 0.0986023C8.57959 0.0986023 5.90601 1.20564 3.89494 3.21572C1.88313 5.22658 0.774902 7.90134 0.774902 10.7465C0.774902 13.5924 1.88313 16.2664 3.8942 18.2773C5.90527 20.2873 8.57885 21.3944 11.4228 21.3944C14.2668 21.3944 16.9403 20.2873 18.9506 18.2773C20.9632 16.2657 22.0715 13.5909 22.0707 10.7457C22.0714 7.9006 20.964 5.22658 18.9514 3.21572ZM16.7479 11.5105H12.1842V16.0945C12.1842 16.517 11.8434 16.8585 11.4235 16.8585C11.0037 16.8585 10.6629 16.517 10.6629 16.0945V11.5105H6.09924C5.67937 11.5105 5.33861 11.1682 5.33861 10.7465C5.33861 10.3247 5.67937 9.98247 6.09924 9.98247H10.6629V5.3985C10.6629 4.97675 11.0037 4.63448 11.4236 4.63448C11.8435 4.63448 12.1842 4.97675 12.1842 5.3985V9.98251H16.7479C17.1685 9.98251 17.5086 10.3248 17.5086 10.7465C17.5086 11.1683 17.1685 11.5105 16.7479 11.5105Z" fill="#E39DFF"/>
</svg>
