<svg width="50" height="50" viewBox="0 0 50 50" fill="none" xmlns="http://www.w3.org/2000/svg">
<g id="Frame">
<path id="Vector" d="M40.1667 34.8182H10.8333C9.82107 34.8182 9 35.6528 9 36.6818V44.1364C9 45.1654 9.82107 46 10.8333 46H40.1667C41.1789 46 42 45.1654 42 44.1364V36.6818C42 35.6528 41.1789 34.8182 40.1667 34.8182ZM15.4167 43.2045C13.8976 43.2045 12.6667 41.9526 12.6667 40.4091C12.6667 38.8656 13.8976 37.6136 15.4167 37.6136C16.9351 37.6136 18.1667 38.8656 18.1667 40.4091C18.1667 41.9526 16.9351 43.2045 15.4167 43.2045ZM40.1667 5H10.8333C9.82107 5 9 5.83398 9 6.86364V14.3182C9 15.3472 9.82107 16.1818 10.8333 16.1818H40.1667C41.1789 16.1818 42 15.3472 42 14.3182V6.86364C42 5.83398 41.1789 5 40.1667 5ZM15.4167 13.3864C13.8983 13.3864 12.6667 12.1344 12.6667 10.5909C12.6667 9.04675 13.8983 7.79545 15.4167 7.79545C16.9357 7.79545 18.1667 9.04675 18.1667 10.5909C18.1667 12.1344 16.9357 13.3864 15.4167 13.3864ZM40.1667 19.9091H10.8333C9.82107 19.9091 9 20.7431 9 21.7727V29.2273C9 30.2563 9.82107 31.0909 10.8333 31.0909H40.1667C41.1789 31.0909 42 30.2563 42 29.2273V21.7727C42 20.7431 41.1789 19.9091 40.1667 19.9091ZM15.4167 28.2955C13.8983 28.2955 12.6667 27.0435 12.6667 25.5C12.6667 23.9558 13.8983 22.7045 15.4167 22.7045C16.9351 22.7045 18.1667 23.9558 18.1667 25.5C18.1667 27.0435 16.9351 28.2955 15.4167 28.2955Z" fill="#E39DFF"/>
</g>
</svg>
