<svg width="816" height="511" viewBox="0 0 816 511" fill="none" xmlns="http://www.w3.org/2000/svg">
<g clip-path="url(#clip0_2783_124)">
<path d="M66 3H813V445C813 479.794 784.794 508 750 508H3V66C3 31.2061 31.2061 3 66 3Z" fill="url(#paint0_linear_2783_124)"/>
<path d="M66 3H813V445C813 479.794 784.794 508 750 508H3V66C3 31.2061 31.2061 3 66 3Z" fill="#E7ACFF"/>
<path d="M66 3H813V445C813 479.794 784.794 508 750 508H3V66C3 31.2061 31.2061 3 66 3Z" fill="white"/>
<path d="M66 3H813V445C813 479.794 784.794 508 750 508H3V66C3 31.2061 31.2061 3 66 3Z" stroke="#E39DFF" stroke-width="6" stroke-linejoin="round"/>
<path d="M16.0517 248.263C16.0517 249.736 17.2456 250.93 18.7183 250.93C20.1911 250.93 21.385 249.736 21.385 248.263C21.385 246.79 20.1911 245.596 18.7183 245.596C17.2456 245.596 16.0517 246.79 16.0517 248.263ZM337.604 225.313L337.873 224.892L337.604 225.313ZM354.258 390.409L354.674 390.687L354.258 390.409ZM198.291 488.079L198.296 487.579L198.291 488.079ZM30.5933 151.839L31.0648 152.005L30.5933 151.839ZM498.495 198.806L498.021 198.964L498.495 198.806ZM429.617 483.521L425.016 486.608L429.984 489.549L430.477 484.031L429.617 483.521ZM18.9182 248.721C21.3476 247.662 23.869 246.599 26.4765 245.534L26.0985 244.608C23.4841 245.676 20.9554 246.742 18.5185 247.805L18.9182 248.721ZM41.7817 239.637C46.7382 237.83 51.9134 236.036 57.2778 234.268L56.9648 233.318C51.5909 235.089 46.406 236.887 41.4393 238.697L41.7817 239.637ZM72.9575 229.342C78.1008 227.802 83.3758 226.294 88.7611 224.829L88.4986 223.864C83.1053 225.331 77.8221 226.841 72.6706 228.384L72.9575 229.342ZM104.657 220.713C109.919 219.418 115.26 218.171 120.663 216.979L120.447 216.003C115.037 217.196 109.688 218.446 104.419 219.742L104.657 220.713ZM136.746 213.637C142.097 212.593 147.49 211.611 152.908 210.697L152.742 209.711C147.315 210.626 141.914 211.61 136.554 212.656L136.746 213.637ZM169.142 208.18C174.573 207.414 180.01 206.725 185.44 206.119L185.329 205.125C179.89 205.732 174.442 206.423 169.003 207.19L169.142 208.18ZM201.781 204.556C207.28 204.119 212.754 203.779 218.184 203.543L218.141 202.544C212.698 202.78 207.213 203.122 201.702 203.559L201.781 204.556ZM234.582 203.153C240.132 203.137 245.616 203.242 251.014 203.48L251.058 202.481C245.644 202.243 240.144 202.137 234.579 202.153L234.582 203.153ZM267.36 204.641C272.917 205.196 278.353 205.912 283.642 206.802L283.808 205.816C278.495 204.922 273.037 204.203 267.459 203.646L267.36 204.641ZM299.689 210.164C305.117 211.548 310.339 213.153 315.324 214.995L315.671 214.057C310.65 212.202 305.394 210.587 299.936 209.195L299.689 210.164ZM330.266 221.628C332.705 222.921 335.064 224.289 337.336 225.735L337.873 224.892C335.577 223.43 333.196 222.049 330.734 220.745L330.266 221.628ZM337.336 225.735C339.369 227.03 341.317 228.515 343.178 230.175L343.843 229.429C341.945 227.735 339.954 226.217 337.873 224.892L337.336 225.735ZM352.782 241.324C355.431 245.233 357.815 249.569 359.93 254.244L360.841 253.832C358.706 249.112 356.295 244.725 353.61 240.763L352.782 241.324ZM365.129 268.1C366.549 272.716 367.756 277.529 368.746 282.479L369.727 282.283C368.73 277.303 367.516 272.456 366.085 267.806L365.129 268.1ZM371.005 297.125C371.545 302.007 371.888 306.956 372.034 311.921L373.033 311.892C372.887 306.9 372.542 301.924 371.999 297.015L371.005 297.125ZM371.876 326.751C371.623 331.729 371.167 336.668 370.506 341.516L371.497 341.651C372.162 336.774 372.621 331.807 372.875 326.802L371.876 326.751ZM367.825 356.09C366.666 361.016 365.272 365.773 363.64 370.296L364.58 370.635C366.227 366.073 367.632 361.279 368.798 356.319L367.825 356.09ZM357.643 383.815C356.45 386.019 355.184 388.128 353.843 390.131L354.674 390.687C356.033 388.656 357.316 386.521 358.522 384.291L357.643 383.815ZM353.843 390.131C352.319 392.406 350.806 394.634 349.302 396.817L350.126 397.385C351.632 395.198 353.148 392.966 354.674 390.687L353.843 390.131ZM339.922 409.986C336.605 414.48 333.321 418.747 330.056 422.795L330.835 423.423C334.109 419.362 337.402 415.084 340.727 410.58L339.922 409.986ZM319.593 435.087C315.854 439.23 312.122 443.091 308.375 446.685L309.067 447.407C312.833 443.795 316.582 439.916 320.335 435.757L319.593 435.087ZM296.266 457.315C291.952 460.755 287.589 463.866 283.147 466.666L283.68 467.512C288.156 464.691 292.548 461.559 296.889 458.097L296.266 457.315ZM269.021 474.401C264.162 476.676 259.179 478.631 254.035 480.286L254.341 481.238C259.524 479.571 264.547 477.6 269.445 475.306L269.021 474.401ZM238.436 484.3C233.298 485.315 227.988 486.084 222.478 486.623L222.575 487.618C228.116 487.077 233.458 486.303 238.63 485.281L238.436 484.3ZM206.385 487.545C203.736 487.599 201.04 487.61 198.296 487.579L198.285 488.579C201.039 488.61 203.745 488.599 206.405 488.545L206.385 487.545ZM198.296 487.579C195.571 487.548 192.862 487.422 190.171 487.204L190.09 488.201C192.804 488.42 195.536 488.547 198.285 488.579L198.296 487.579ZM174.137 484.79C168.86 483.625 163.665 482.107 158.559 480.259L158.219 481.199C163.364 483.061 168.601 484.591 173.922 485.767L174.137 484.79ZM143.649 473.812C138.863 471.399 134.17 468.695 129.579 465.72L129.035 466.559C133.655 469.553 138.379 472.275 143.199 474.705L143.649 473.812ZM116.394 456.225C112.195 452.889 108.097 449.324 104.105 445.549L103.418 446.275C107.429 450.07 111.55 453.654 115.772 457.008L116.394 456.225ZM92.7487 433.926C89.1496 429.952 85.6541 425.802 82.2685 421.493L81.4822 422.111C84.8817 426.438 88.3921 430.605 92.0075 434.598L92.7487 433.926ZM72.6323 408.375C69.5842 403.938 66.6437 399.368 63.816 394.68L62.9597 395.196C65.7973 399.901 68.7485 404.488 71.8081 408.941L72.6323 408.375ZM55.8047 380.512C53.281 375.747 50.8688 370.884 48.573 365.935L47.6658 366.356C49.9689 371.321 52.3889 376.2 54.921 380.98L55.8047 380.512ZM42.1018 350.998C40.0777 345.982 38.1707 340.896 36.3855 335.752L35.4408 336.08C37.2313 341.239 39.1441 346.341 41.1745 351.372L42.1018 350.998ZM31.4247 320.243C29.8992 315.039 28.4983 309.791 27.2264 304.511L26.2542 304.745C27.5299 310.041 28.9351 315.305 30.4651 320.524L31.4247 320.243ZM23.8044 288.594C22.7937 283.255 21.917 277.894 21.1789 272.526L20.1882 272.662C20.9287 278.047 21.8081 283.424 22.8218 288.78L23.8044 288.594ZM19.3792 256.343C18.9194 250.917 18.6055 245.496 18.4423 240.09L17.4428 240.12C17.6065 245.544 17.9214 250.984 18.3828 256.428L19.3792 256.343ZM18.4129 223.814C18.5606 218.365 18.869 212.946 19.343 207.571L18.3469 207.483C17.8711 212.879 17.5615 218.318 17.4132 223.787L18.4129 223.814ZM21.2918 191.426C22.124 186.032 23.1345 180.697 24.3287 175.436L23.3535 175.215C22.154 180.499 21.1391 185.857 20.3035 191.273L21.2918 191.426ZM28.5201 159.716C29.3192 157.122 30.1672 154.552 31.0648 152.005L30.1217 151.673C29.2196 154.232 28.3674 156.815 27.5645 159.421L28.5201 159.716ZM31.0648 152.005C31.9426 149.515 32.8906 147.047 33.9068 144.602L32.9833 144.218C31.9603 146.68 31.0057 149.165 30.1217 151.673L31.0648 152.005ZM40.766 130.288C43.281 125.669 46.0433 121.147 49.0368 116.732L48.2091 116.171C45.198 120.612 42.4187 125.161 39.8877 129.809L40.766 130.288ZM58.5396 104.001C61.8646 99.9349 65.3916 95.9758 69.1061 92.1313L68.3869 91.4365C64.6539 95.3002 61.1085 99.2799 57.7655 103.368L58.5396 104.001ZM80.5863 81.1359C84.5173 77.6462 88.6097 74.2704 92.8504 71.0153L92.2416 70.222C87.9824 73.4912 83.8716 76.8821 79.9224 80.3881L80.5863 81.1359ZM105.788 61.7633C110.17 58.8441 114.679 56.0447 119.303 53.3714L118.803 52.5056C114.16 55.1894 109.633 57.9999 105.233 60.931L105.788 61.7633ZM133.316 45.8318C138.035 43.4734 142.851 41.2406 147.755 39.1391L147.361 38.22C142.44 40.3291 137.605 42.5701 132.869 44.9373L133.316 45.8318ZM162.559 33.2913C167.523 31.4917 172.56 29.8238 177.66 28.2928L177.372 27.335C172.255 28.8714 167.2 30.5452 162.218 32.3512L162.559 33.2913ZM193.012 24.1456C198.153 22.9091 203.344 21.811 208.575 20.8566L208.395 19.8728C203.146 20.8306 197.937 21.9325 192.778 23.1733L193.012 24.1456ZM224.299 18.4392C229.551 17.7817 234.833 17.2702 240.135 16.9097L240.067 15.912C234.747 16.2738 229.446 16.7871 224.175 17.4469L224.299 18.4392ZM256.033 16.2868C261.329 16.2325 266.634 16.3322 271.94 16.5907L271.988 15.5919C266.663 15.3324 261.338 15.2324 256.023 15.2868L256.033 16.2868ZM287.799 17.8421C293.06 18.4182 298.312 19.1558 303.545 20.0596L303.715 19.0742C298.461 18.1668 293.189 17.4264 287.908 16.8481L287.799 17.8421ZM319.118 23.2607C324.26 24.4901 329.375 25.8876 334.452 27.458L334.747 26.5027C329.649 24.9258 324.514 23.5225 319.351 22.2881L319.118 23.2607ZM349.476 32.6584C354.406 34.5517 359.29 36.6179 364.121 38.8614L364.542 37.9545C359.691 35.7013 354.785 33.6263 349.835 31.7249L349.476 32.6584ZM378.319 46.059C382.926 48.5987 387.475 51.312 391.956 54.2031L392.498 53.3628C387.997 50.4591 383.429 47.734 378.801 45.1832L378.319 46.059ZM404.99 63.2667C409.193 66.41 413.325 69.7241 417.379 73.2126L418.031 72.4547C413.96 68.9512 409.81 65.6229 405.589 62.4659L404.99 63.2667ZM429.085 83.9968C432.827 87.6841 436.49 91.5363 440.067 95.5568L440.814 94.8921C437.223 90.8553 433.545 86.9872 429.787 83.2845L429.085 83.9968ZM450.212 107.714C453.43 111.826 456.565 116.09 459.612 120.512L460.436 119.944C457.377 115.507 454.23 111.225 450.999 107.098L450.212 107.714ZM468.285 133.918C470.988 138.374 473.609 142.971 476.141 147.711L477.023 147.24C474.482 142.484 471.853 137.871 469.14 133.4L468.285 133.918ZM483.244 161.882C485.477 166.637 487.627 171.522 489.69 176.54L490.615 176.16C488.546 171.127 486.389 166.226 484.149 161.457L483.244 161.882ZM495.368 191.305C496.273 193.827 497.158 196.38 498.021 198.964L498.97 198.647C498.104 196.056 497.217 193.496 496.309 190.967L495.368 191.305ZM498.021 198.964C498.834 201.396 499.59 203.836 500.292 206.284L501.253 206.008C500.547 203.546 499.787 201.092 498.97 198.647L498.021 198.964ZM503.888 221.159C504.883 226.179 505.67 231.223 506.262 236.284L507.255 236.168C506.66 231.082 505.869 226.011 504.869 220.965L503.888 221.159ZM507.47 251.549C507.687 256.648 507.723 261.756 507.593 266.865L508.593 266.89C508.724 261.76 508.687 256.629 508.469 251.506L507.47 251.549ZM506.718 282.161C506.27 287.244 505.672 292.32 504.936 297.38L505.926 297.524C506.664 292.446 507.265 287.351 507.714 282.248L506.718 282.161ZM502.337 312.486C501.343 317.5 500.227 322.491 499.002 327.45L499.973 327.69C501.201 322.716 502.321 317.71 503.317 312.681L502.337 312.486ZM495.01 342.253C493.572 347.175 492.04 352.056 490.426 356.89L491.374 357.207C492.992 352.362 494.529 347.468 495.97 342.533L495.01 342.253ZM485.315 371.347C483.516 376.172 481.648 380.939 479.726 385.638L480.652 386.017C482.577 381.308 484.449 376.532 486.252 371.696L485.315 371.347ZM473.714 399.748C471.618 404.483 469.48 409.135 467.318 413.695L468.222 414.124C470.387 409.556 472.529 404.896 474.629 400.153L473.714 399.748ZM460.576 427.488C458.231 432.148 455.879 436.691 453.54 441.106L454.423 441.575C456.765 437.154 459.121 432.604 461.469 427.937L460.576 427.488ZM446.228 454.599C443.657 459.241 441.132 463.706 438.681 467.976L439.548 468.474C442.001 464.2 444.529 459.731 447.102 455.083L446.228 454.599ZM430.964 481.236C430.424 482.153 429.89 483.059 429.362 483.952L430.223 484.461C430.751 483.567 431.285 482.661 431.826 481.743L430.964 481.236Z" fill="black" fill-opacity="0.1"/>
</g>
<defs>
<linearGradient id="paint0_linear_2783_124" x1="110.5" y1="298.32" x2="430.069" y2="246.336" gradientUnits="userSpaceOnUse">
<stop stop-color="#DFB0FF"/>
<stop offset="1" stop-color="#B885FE"/>
</linearGradient>
<clipPath id="clip0_2783_124">
<rect width="816" height="511" fill="white"/>
</clipPath>
</defs>
</svg>
