<svg width="512" height="74" viewBox="0 0 512 74" fill="none" xmlns="http://www.w3.org/2000/svg">
<rect x="1.5" y="1.5" width="509" height="71" rx="35.5" fill="white" stroke="#B885FE" stroke-width="3"/>
<mask id="path-2-inside-1_2883_301" fill="white">
<path d="M0 36.9385C0 16.7801 16.3416 0.438477 36.5 0.438477V0.438477C56.6584 0.438477 73 16.7801 73 36.9385V36.9385C73 57.0969 56.6584 73.4385 36.5 73.4385V73.4385C16.3416 73.4385 0 57.0969 0 36.9385V36.9385Z"/>
</mask>
<path d="M36.5 70.4385C17.9985 70.4385 3 55.44 3 36.9385H-3C-3 58.7537 14.6848 76.4385 36.5 76.4385V70.4385ZM70 36.9385C70 55.44 55.0015 70.4385 36.5 70.4385V76.4385C58.3152 76.4385 76 58.7537 76 36.9385H70ZM36.5 3.43848C55.0015 3.43848 70 18.4369 70 36.9385H76C76 15.1232 58.3152 -2.56152 36.5 -2.56152V3.43848ZM36.5 -2.56152C14.6848 -2.56152 -3 15.1232 -3 36.9385H3C3 18.4369 17.9985 3.43848 36.5 3.43848V-2.56152Z" fill="#B885FE" mask="url(#path-2-inside-1_2883_301)"/>
</svg>
