<svg width="493" height="275" viewBox="0 0 493 275" fill="none" xmlns="http://www.w3.org/2000/svg">
<path d="M0.0516557 134.836C0.0516557 136.309 1.24556 137.503 2.71832 137.503C4.19108 137.503 5.38499 136.309 5.38499 134.836C5.38499 133.364 4.19108 132.17 2.71832 132.17C1.24556 132.17 0.0516557 133.364 0.0516557 134.836ZM321.604 121.633L321.776 121.163L321.604 121.633ZM338.258 216.619L338.584 216.998L338.258 216.619ZM182.291 272.812L182.294 272.312L182.291 272.812ZM14.5933 79.3596L15.0196 79.6208L14.5933 79.3596ZM482.495 106.382L482.063 106.633L482.495 106.382ZM414.736 268.968L409.487 270.743L413.513 274.882L415.433 269.685L414.736 268.968ZM2.84 135.321C5.34772 134.692 7.95333 134.061 10.6504 133.428L10.4221 132.455C7.72037 133.088 5.10971 133.721 2.59664 134.351L2.84 135.321ZM26.3751 129.954C31.4169 128.902 36.6815 127.857 42.1385 126.828L41.9533 125.845C36.4902 126.875 31.2192 127.921 26.1708 128.975L26.3751 129.954ZM57.9874 123.98C63.1709 123.093 68.4857 122.225 73.9099 121.383L73.7564 120.395C68.3272 121.238 63.0074 122.107 57.8187 122.995L57.9874 123.98ZM89.8212 119.03C95.0773 118.292 100.411 117.581 105.804 116.903L105.679 115.911C100.281 116.59 94.9429 117.301 89.6822 118.04L89.8212 119.03ZM121.789 115.008C127.096 114.418 132.443 113.863 137.813 113.346L137.717 112.351C132.342 112.868 126.99 113.424 121.678 114.014L121.789 115.008ZM153.858 111.928C159.211 111.498 164.571 111.11 169.923 110.77L169.859 109.772C164.502 110.113 159.136 110.501 153.778 110.932L153.858 111.928ZM185.999 109.892C191.397 109.647 196.771 109.455 202.103 109.321L202.078 108.321C196.739 108.456 191.359 108.648 185.953 108.893L185.999 109.892ZM218.191 109.096C223.633 109.083 229.011 109.138 234.308 109.266L234.332 108.266C229.026 108.138 223.639 108.083 218.188 108.096L218.191 109.096ZM250.371 109.895C255.854 110.198 261.222 110.59 266.449 111.079L266.543 110.084C261.301 109.594 255.921 109.2 250.426 108.896L250.371 109.895ZM282.42 112.942C287.907 113.721 293.189 114.628 298.235 115.672L298.438 114.693C293.369 113.644 288.066 112.734 282.56 111.952L282.42 112.942ZM313.824 119.576C316.455 120.367 318.994 121.209 321.432 122.102L321.776 121.163C319.318 120.263 316.761 119.415 314.112 118.618L313.824 119.576ZM321.432 122.102C323.709 122.936 325.875 123.906 327.931 124.999L328.401 124.116C326.304 123.001 324.095 122.012 321.776 121.163L321.432 122.102ZM339.391 133.352C342.823 136.688 345.736 140.462 348.123 144.538L348.986 144.033C346.556 139.883 343.587 136.037 340.087 132.635L339.391 133.352ZM353.711 157.603C355.032 162.162 355.812 166.885 356.042 171.632L357.041 171.583C356.807 166.76 356.015 161.96 354.671 157.324L353.711 157.603ZM355.068 185.818C354.183 190.492 352.733 195.046 350.711 199.339L351.616 199.765C353.675 195.392 355.15 190.757 356.05 186.004L355.068 185.818ZM342.976 211.231C341.433 213.001 339.752 214.676 337.932 216.24L338.584 216.998C340.441 215.403 342.155 213.694 343.729 211.888L342.976 211.231ZM337.932 216.24C335.738 218.125 333.565 219.955 331.41 221.73L332.046 222.502C334.207 220.722 336.385 218.888 338.584 216.998L337.932 216.24ZM318.021 232.215C313.323 235.693 308.675 238.909 304.038 241.876L304.578 242.719C309.235 239.738 313.901 236.509 318.616 233.019L318.021 232.215ZM289.375 250.442C284.306 253.117 279.198 255.516 273.999 257.654L274.379 258.579C279.609 256.428 284.746 254.016 289.842 251.327L289.375 250.442ZM257.995 263.328C252.661 264.929 247.188 266.297 241.525 267.447L241.723 268.427C247.415 267.271 252.918 265.896 258.282 264.286L257.995 263.328ZM224.749 270.155C219.307 270.825 213.675 271.331 207.815 271.685L207.876 272.684C213.754 272.328 219.407 271.82 224.871 271.147L224.749 270.155ZM190.822 272.288C188.031 272.324 185.189 272.331 182.294 272.312L182.287 273.312C185.189 273.331 188.037 273.324 190.834 273.288L190.822 272.288ZM182.294 272.312C179.744 272.296 177.209 272.231 174.69 272.121L174.646 273.12C177.178 273.231 179.725 273.296 182.287 273.312L182.294 272.312ZM159.594 270.89C154.519 270.284 149.518 269.491 144.6 268.522L144.407 269.503C149.35 270.477 154.375 271.274 159.475 271.883L159.594 270.89ZM129.845 265.028C124.932 263.666 120.116 262.128 115.404 260.427L115.065 261.367C119.8 263.077 124.64 264.623 129.578 265.992L129.845 265.028ZM101.338 254.732C96.6914 252.64 92.1661 250.387 87.7719 247.988L87.2926 248.866C91.7093 251.277 96.2575 253.541 100.928 255.644L101.338 254.732ZM74.7427 240.202C70.4695 237.417 66.3477 234.489 62.3879 231.434L61.7772 232.226C65.758 235.297 69.9013 238.24 74.1966 241.04L74.7427 240.202ZM50.7587 221.684C46.982 218.243 43.3935 214.681 40.0051 211.018L39.271 211.697C42.679 215.381 46.2877 218.963 50.0851 222.423L50.7587 221.684ZM30.2137 199.432C27.0888 195.371 24.1997 191.218 21.5601 186.994L20.7121 187.524C23.3693 191.776 26.277 195.956 29.4212 200.042L30.2137 199.432ZM14.2241 173.759C11.9823 169.143 10.0379 164.472 8.40717 159.77L7.46239 160.098C9.10654 164.838 11.0663 169.546 13.3246 174.196L14.2241 173.759ZM4.3858 145.181C3.36399 140.178 2.71093 135.172 2.44575 130.19L1.44717 130.243C1.71508 135.276 2.37475 140.332 3.40603 145.381L4.3858 145.181ZM2.86135 115.093C3.41684 110.092 4.39702 105.147 5.82251 100.291L4.86301 100.01C3.42068 104.923 2.42923 109.925 1.86746 114.983L2.86135 115.093ZM11.3476 86.2374C12.4632 84.0033 13.6865 81.7966 15.0196 79.6208L14.1669 79.0984C12.8188 81.2987 11.5815 83.5306 10.4529 85.7906L11.3476 86.2374ZM15.0196 79.6208C16.3883 77.387 17.9292 75.1827 19.6347 73.0106L18.8482 72.393C17.1205 74.5935 15.5571 76.8293 14.1669 79.0984L15.0196 79.6208ZM30.7878 61.2591C34.6493 57.812 38.9364 54.471 43.6107 51.2479L43.0431 50.4247C38.3384 53.6687 34.0179 57.0352 30.1218 60.5131L30.7878 61.2591ZM57.5131 42.6344C62.098 40.0707 66.9395 37.6022 72.0134 35.236L71.5908 34.3297C66.4964 36.7054 61.6329 39.1851 57.0251 41.7616L57.5131 42.6344ZM86.9802 28.8161C91.9244 26.8654 97.0379 25.0035 102.303 23.2357L101.985 22.2877C96.704 24.0607 91.5742 25.9285 86.6132 27.8859L86.9802 28.8161ZM117.889 18.4035C123.041 16.9324 128.308 15.5472 133.677 14.2521L133.442 13.28C128.06 14.5782 122.78 15.967 117.614 17.442L117.889 18.4035ZM149.621 10.7321C154.902 9.67101 160.262 8.69525 165.688 7.80846L165.527 6.82155C160.089 7.71026 154.717 8.68819 149.424 9.75169L149.621 10.7321ZM181.85 5.45746C187.213 4.77217 192.626 4.17347 198.079 3.66469L197.986 2.66901C192.522 3.17885 187.097 3.77879 181.723 4.46552L181.85 5.45746ZM214.343 2.4233C219.754 2.10182 225.192 1.86987 230.647 1.73055L230.621 0.730872C225.155 0.870485 219.706 1.10292 214.284 1.42506L214.343 2.4233ZM246.97 1.59285C252.407 1.64061 257.85 1.7827 263.289 2.02216L263.333 1.02313C257.883 0.783143 252.427 0.640748 246.978 0.592893L246.97 1.59285ZM279.583 3.03571C285.015 3.47395 290.432 4.01304 295.824 4.65605L295.942 3.66308C290.537 3.01854 285.108 2.47818 279.663 2.03895L279.583 3.03571ZM311.983 6.91121C317.372 7.77542 322.724 8.74896 328.028 9.83497L328.229 8.85529C322.91 7.76633 317.544 6.79024 312.141 5.92382L311.983 6.91121ZM343.931 13.4695C349.235 14.8126 354.478 16.2762 359.649 17.8634L359.943 16.9075C354.755 15.3152 349.496 13.8472 344.177 12.5001L343.931 13.4695ZM375.115 23.0661C380.254 24.9538 385.306 26.975 390.256 29.1334L390.656 28.2167C385.686 26.0502 380.617 24.0216 375.459 22.1275L375.115 23.0661ZM404.988 36.1232C409.851 38.6298 414.595 41.285 419.206 44.0925L419.726 43.2384C415.094 40.4181 410.33 37.7514 405.446 35.2343L404.988 36.1232ZM432.789 53.0914C437.215 56.2813 441.488 59.6345 445.594 63.1552L446.244 62.3961C442.116 58.8564 437.821 55.4859 433.373 52.2802L432.789 53.0914ZM457.465 74.2951C461.247 78.1838 464.845 82.2467 468.244 86.4879L469.025 85.8625C465.605 81.5957 461.986 77.509 458.182 73.598L457.465 74.2951ZM477.781 99.6695C479.261 101.946 480.689 104.266 482.063 106.633L482.928 106.13C481.545 103.75 480.108 101.415 478.619 99.1244L477.781 99.6695ZM482.063 106.633C483.449 109.018 484.67 111.419 485.737 113.83L486.652 113.426C485.57 110.98 484.331 108.547 482.928 106.13L482.063 106.633ZM490.496 129.186C491.483 134.515 491.824 139.876 491.605 145.24L492.604 145.281C492.826 139.847 492.481 134.411 491.48 129.004L490.496 129.186ZM489.385 161.206C488.183 166.375 486.538 171.522 484.53 176.62L485.46 176.987C487.484 171.848 489.144 166.655 490.359 161.433L489.385 161.206ZM477.734 191.292C475.229 196.019 472.466 200.679 469.514 205.249L470.353 205.792C473.32 201.2 476.098 196.516 478.618 191.76L477.734 191.292ZM460.247 218.544C456.994 222.902 453.62 227.148 450.192 231.26L450.96 231.9C454.398 227.776 457.783 223.516 461.048 219.142L460.247 218.544ZM439.527 243.492C435.771 247.625 432.034 251.573 428.403 255.309L429.12 256.006C432.757 252.264 436.502 248.307 440.267 244.164L439.527 243.492ZM416.942 266.807C416.072 267.661 415.216 268.498 414.377 269.317L415.075 270.033C415.915 269.213 416.772 268.375 417.642 267.52L416.942 266.807Z" fill="black" fill-opacity="0.1"/>
</svg>
