<svg width="633" height="74" viewBox="0 0 633 74" fill="none" xmlns="http://www.w3.org/2000/svg">
<rect x="1.5" y="1.5" width="630" height="71" rx="35.5" fill="white" stroke="#B885FE" stroke-width="3"/>
<mask id="path-2-inside-1_2925_68" fill="white">
<path d="M0 36.9384C0 16.78 16.3416 0.438354 36.5 0.438354V0.438354C56.6584 0.438354 73 16.78 73 36.9384V36.9384C73 57.0967 56.6584 73.4384 36.5 73.4384V73.4384C16.3416 73.4384 0 57.0967 0 36.9384V36.9384Z"/>
</mask>
<path d="M0 36.9384C0 16.78 16.3416 0.438354 36.5 0.438354V0.438354C56.6584 0.438354 73 16.78 73 36.9384V36.9384C73 57.0967 56.6584 73.4384 36.5 73.4384V73.4384C16.3416 73.4384 0 57.0967 0 36.9384V36.9384Z" fill="white"/>
<path d="M36.5 70.4384C17.9985 70.4384 3 55.4399 3 36.9384H-3C-3 58.7536 14.6848 76.4384 36.5 76.4384V70.4384ZM70 36.9384C70 55.4399 55.0015 70.4384 36.5 70.4384V76.4384C58.3152 76.4384 76 58.7536 76 36.9384H70ZM36.5 3.43835C55.0015 3.43835 70 18.4368 70 36.9384H76C76 15.1231 58.3152 -2.56165 36.5 -2.56165V3.43835ZM36.5 -2.56165C14.6848 -2.56165 -3 15.1231 -3 36.9384H3C3 18.4368 17.9985 3.43835 36.5 3.43835V-2.56165Z" fill="#B885FE" mask="url(#path-2-inside-1_2925_68)"/>
</svg>
