<svg width="675" height="253" viewBox="0 0 675 253" fill="none" xmlns="http://www.w3.org/2000/svg">
<g clip-path="url(#clip0_2925_30)">
<path d="M66 3H672V187.562C672 222.356 643.794 250.562 609 250.562H3V66C3 31.2061 31.2061 3 66 3Z" fill="url(#paint0_linear_2925_30)"/>
<path d="M66 3H672V187.562C672 222.356 643.794 250.562 609 250.562H3V66C3 31.2061 31.2061 3 66 3Z" fill="#E7ACFF"/>
<path d="M66 3H672V187.562C672 222.356 643.794 250.562 609 250.562H3V66C3 31.2061 31.2061 3 66 3Z" fill="white"/>
<path d="M66 3H672V187.562C672 222.356 643.794 250.562 609 250.562H3V66C3 31.2061 31.2061 3 66 3Z" stroke="#E39DFF" stroke-width="6" stroke-linejoin="round"/>
<path d="M20.058 123.374C20.058 124.847 21.2519 126.041 22.7246 126.041C24.1974 126.041 25.3913 124.847 25.3913 123.374C25.3913 121.901 24.1974 120.707 22.7246 120.707C21.2519 120.707 20.058 121.901 20.058 123.374ZM409.861 111.969L409.987 111.485L409.861 111.969ZM430.08 194.013L430.34 194.439L430.08 194.013ZM240.731 242.55L240.733 242.05L240.731 242.55ZM37.1411 75.4561L37.52 75.7824L37.1411 75.4561ZM605.188 98.7961L604.8 99.1123L605.188 98.7961ZM522.825 239.293L517.355 240.176L520.64 244.923L523.394 240.116L522.825 239.293ZM22.8125 123.866C25.3808 123.408 28.0335 122.948 30.766 122.487L30.5998 121.501C27.8643 121.962 25.2084 122.423 22.6368 122.882L22.8125 123.866ZM46.7353 119.93C51.9004 119.142 57.2742 118.358 62.833 117.582L62.6948 116.591C57.132 117.368 51.754 118.153 46.5846 118.941L46.7353 119.93ZM78.8584 115.435C84.1052 114.76 89.4815 114.095 94.9705 113.444L94.8526 112.451C89.3605 113.103 83.981 113.768 78.7308 114.443L78.8584 115.435ZM111.092 111.606C116.382 111.027 121.757 110.463 127.2 109.915L127.1 108.92C121.654 109.468 116.277 110.033 110.983 110.612L111.092 111.606ZM143.342 108.362C148.682 107.871 154.073 107.398 159.505 106.946L159.422 105.949C153.987 106.402 148.593 106.875 143.251 107.366L143.342 108.362ZM175.679 105.669C181.046 105.269 186.439 104.891 191.848 104.537L191.783 103.539C186.371 103.893 180.974 104.272 175.605 104.672L175.679 105.669ZM208.033 103.552C213.43 103.249 218.832 102.972 224.228 102.722L224.182 101.723C218.783 101.973 213.377 102.25 207.977 102.553L208.033 103.552ZM240.43 102.059C245.851 101.866 251.256 101.704 256.632 101.574L256.607 100.575C251.228 100.704 245.82 100.867 240.394 101.06L240.43 102.059ZM272.838 101.285C278.294 101.222 283.706 101.197 289.065 101.211L289.067 100.211C283.704 100.197 278.287 100.222 272.827 100.285L272.838 101.285ZM305.283 101.38C310.759 101.482 316.161 101.63 321.476 101.826L321.513 100.827C316.191 100.63 310.783 100.482 305.301 100.381L305.283 101.38ZM337.655 102.593C343.179 102.917 348.583 103.3 353.852 103.747L353.936 102.75C348.658 102.303 343.245 101.919 337.714 101.595L337.655 102.593ZM369.937 105.363C375.502 106.017 380.873 106.755 386.025 107.582L386.183 106.595C381.016 105.765 375.631 105.025 370.054 104.37L369.937 105.363ZM401.895 110.574C404.593 111.168 407.208 111.794 409.735 112.453L409.987 111.485C407.447 110.823 404.82 110.194 402.11 109.597L401.895 110.574ZM409.735 112.453C412.84 113.262 415.776 114.219 418.543 115.307L418.909 114.377C416.104 113.273 413.129 112.304 409.987 111.485L409.735 112.453ZM434.569 124.399C439.719 128.488 443.733 133.194 446.592 138.231L447.462 137.738C444.536 132.583 440.436 127.78 435.191 123.616L434.569 124.399ZM451.81 155.709C452.135 161.767 450.993 167.858 448.349 173.59L449.257 174.009C451.969 168.129 453.142 161.876 452.809 155.655L451.81 155.709ZM437.275 188.134C435.05 190.08 432.566 191.907 429.819 193.586L430.34 194.439C433.134 192.732 435.664 190.872 437.934 188.887L437.275 188.134ZM429.819 193.586C427.433 195.045 425.068 196.465 422.721 197.847L423.228 198.709C425.58 197.324 427.95 195.901 430.34 194.439L429.819 193.586ZM408.33 205.958C403.376 208.619 398.474 211.109 393.591 213.437L394.022 214.34C398.919 212.005 403.836 209.507 408.803 206.839L408.33 205.958ZM378.494 220.136C373.368 222.238 368.227 224.168 363.034 225.936L363.356 226.882C368.569 225.108 373.729 223.171 378.873 221.061L378.494 220.136ZM347.244 230.762C341.989 232.19 336.648 233.467 331.183 234.603L331.387 235.582C336.871 234.442 342.232 233.16 347.506 231.727L347.244 230.762ZM314.918 237.514C309.601 238.319 304.149 239.009 298.533 239.59L298.636 240.585C304.267 240.002 309.735 239.31 315.068 238.503L314.918 237.514ZM282.065 240.958C276.722 241.299 271.226 241.558 265.555 241.738L265.587 242.738C271.267 242.557 276.775 242.298 282.129 241.956L282.065 240.958ZM249.01 242.044C246.291 242.061 243.533 242.063 240.733 242.05L240.728 243.05C243.531 243.063 246.293 243.061 249.016 243.044L249.01 242.044ZM240.733 242.05C238.063 242.037 235.406 241.994 232.763 241.921L232.735 242.921C235.386 242.994 238.05 243.037 240.728 243.05L240.733 242.05ZM216.907 241.119C211.575 240.725 206.309 240.21 201.114 239.581L200.994 240.573C206.204 241.205 211.486 241.721 216.834 242.116L216.907 241.119ZM185.41 237.297C180.121 236.397 174.918 235.379 169.806 234.248L169.59 235.225C174.718 236.359 179.937 237.38 185.242 238.282L185.41 237.297ZM154.387 230.428C149.214 229.005 144.151 227.467 139.205 225.822L138.89 226.771C143.852 228.422 148.932 229.965 154.122 231.392L154.387 230.428ZM124.293 220.402C119.278 218.419 114.407 216.323 109.689 214.126L109.267 215.033C114.003 217.238 118.893 219.341 123.925 221.332L124.293 220.402ZM95.5406 206.99C90.7861 204.396 86.2227 201.695 81.8624 198.901L81.3229 199.743C85.7035 202.55 90.2872 205.263 95.0616 207.868L95.5406 206.99ZM68.8706 189.851C64.5279 186.558 60.45 183.168 56.6532 179.698L55.9786 180.437C59.7992 183.928 63.9006 187.337 68.2664 190.647L68.8706 189.851ZM45.54 168.414C41.9275 164.308 38.7 160.126 35.8808 155.893L35.0484 156.447C37.8943 160.72 41.1495 164.938 44.7893 169.075L45.54 168.414ZM28.2219 142.072C26.0105 137.087 24.379 132.073 23.3628 127.07L22.3828 127.269C23.4147 132.349 25.0696 137.432 27.3078 142.478L28.2219 142.072ZM22.2367 111.392C22.5675 106.197 23.6211 101.056 25.4408 96.0153L24.5003 95.6757C22.6482 100.805 21.5755 106.039 21.2387 111.329L22.2367 111.392ZM32.6907 82.0327C34.1431 79.9207 35.7515 77.836 37.52 75.7824L36.7623 75.1298C34.971 77.2098 33.3403 79.3232 31.8668 81.466L32.6907 82.0327ZM37.52 75.7824C39.1409 73.9002 40.9619 72.0414 42.9745 70.2081L42.3011 69.4688C40.2619 71.3263 38.4122 73.2139 36.7623 75.1298L37.52 75.7824ZM55.5522 60.637C59.7073 57.9375 64.2861 55.3116 69.2545 52.767L68.7986 51.877C63.8041 54.435 59.1951 57.0778 55.0074 59.7984L55.5522 60.637ZM83.6471 46.0757C88.3396 44.0875 93.2788 42.1606 98.445 40.2994L98.1061 39.3586C92.9241 41.2255 87.9677 43.1589 83.257 45.1549L83.6471 46.0757ZM113.51 35.2559C118.44 33.7215 123.532 32.2416 128.773 30.8193L128.512 29.8542C123.259 31.2796 118.155 32.7628 113.213 34.3011L113.51 35.2559ZM144.194 26.9021C149.267 25.697 154.454 24.543 159.745 23.4425L159.541 22.4634C154.241 23.5658 149.045 24.7218 143.963 25.9292L144.194 26.9021ZM175.378 20.4011C180.506 19.4701 185.716 18.5878 190.998 17.756L190.843 16.7681C185.553 17.6011 180.335 18.4848 175.199 19.4172L175.378 20.4011ZM206.715 15.4598C211.924 14.7568 217.191 14.1022 222.51 13.4976L222.397 12.504C217.072 13.1094 211.797 13.7649 206.581 14.4688L206.715 15.4598ZM238.363 11.859C243.593 11.3717 248.863 10.9325 254.167 10.5431L254.093 9.54583C248.783 9.9357 243.507 10.3754 238.271 10.8633L238.363 11.859ZM270.03 9.53322C275.306 9.24855 280.607 9.01343 285.928 8.82927L285.893 7.82987C280.566 8.01425 275.258 8.24966 269.976 8.53467L270.03 9.53322ZM301.819 8.43289C307.107 8.35224 312.407 8.32272 317.712 8.34568L317.717 7.34569C312.405 7.3227 307.099 7.35226 301.804 7.43301L301.819 8.43289ZM333.613 8.57284C338.911 8.7017 344.207 8.88417 349.495 9.12161L349.54 8.12261C344.245 7.88487 338.942 7.70216 333.638 7.57314L333.613 8.57284ZM365.375 10.0031C370.677 10.3544 375.964 10.7628 381.23 11.2297L381.319 10.2336C376.045 9.76609 370.75 9.35709 365.441 9.00525L365.375 10.0031ZM397.032 12.8153C402.322 13.4091 407.582 14.0644 412.807 14.7825L412.944 13.7919C407.71 13.0725 402.441 12.4162 397.144 11.8215L397.032 12.8153ZM428.543 17.1558C433.803 18.0214 439.019 18.9542 444.183 19.9557L444.374 18.974C439.2 17.9706 433.975 17.0361 428.706 16.1691L428.543 17.1558ZM459.698 23.2099C464.919 24.3904 470.077 25.6461 475.163 26.9784L475.417 26.0111C470.319 24.6757 465.15 23.4175 459.918 22.2345L459.698 23.2099ZM490.479 31.2913C495.604 32.8398 500.643 34.473 505.587 36.1926L505.916 35.2481C500.958 33.5237 495.906 31.8864 490.768 30.3341L490.479 31.2913ZM520.44 41.7392C525.407 43.7287 530.259 45.8151 534.986 48.0008L535.406 47.0931C530.662 44.8998 525.794 42.8065 520.812 40.8109L520.44 41.7392ZM549.229 55.0966C553.967 57.6403 558.552 60.2986 562.97 63.0739L563.502 62.2271C559.063 59.439 554.459 56.7694 549.702 54.2155L549.229 55.0966ZM576.076 72.0216C580.382 75.2206 584.486 78.5539 588.374 82.0245L589.04 81.2785C585.128 77.7869 581.001 74.4348 576.673 71.2189L576.076 72.0216ZM599.647 93.148C601.428 95.0981 603.146 97.0861 604.8 99.1123L605.575 98.48C603.909 96.4391 602.179 94.4371 600.386 92.4737L599.647 93.148ZM604.8 99.1123C606.517 101.216 608.026 103.331 609.339 105.456L610.19 104.93C608.853 102.766 607.318 100.616 605.575 98.48L604.8 99.1123ZM615.294 119.675C616.48 124.786 616.707 129.928 616.121 135.071L617.115 135.184C617.713 129.936 617.482 124.679 616.268 119.449L615.294 119.675ZM612.228 150.064C610.378 154.713 607.972 159.335 605.118 163.906L605.966 164.436C608.847 159.823 611.282 155.147 613.157 150.434L612.228 150.064ZM596.025 176.57C592.817 180.54 589.335 184.446 585.658 188.272L586.379 188.965C590.073 185.122 593.574 181.193 596.803 177.198L596.025 176.57ZM574.459 199.179C570.613 202.705 566.658 206.138 562.664 209.461L563.304 210.23C567.308 206.898 571.276 203.455 575.135 199.916L574.459 199.179ZM550.44 219.237C546.19 222.513 541.98 225.646 537.895 228.614L538.483 229.423C542.574 226.45 546.792 223.312 551.05 220.029L550.44 219.237ZM525.121 237.694C524.205 238.334 523.302 238.962 522.413 239.578L522.983 240.4C523.872 239.783 524.776 239.154 525.693 238.515L525.121 237.694Z" fill="black" fill-opacity="0.1"/>
</g>
<defs>
<linearGradient id="paint0_linear_2925_30" x1="91.4062" y1="148.028" x2="344.163" y2="79.4864" gradientUnits="userSpaceOnUse">
<stop stop-color="#DFB0FF"/>
<stop offset="1" stop-color="#B885FE"/>
</linearGradient>
<clipPath id="clip0_2925_30">
<rect width="675" height="253" fill="white"/>
</clipPath>
</defs>
</svg>
