<svg width="20" height="17" viewBox="0 0 20 17" fill="none" xmlns="http://www.w3.org/2000/svg">
<path d="M3.78626 3.7894C3.55052 3.79235 3.31649 3.7484 3.09732 3.66002C2.89171 3.57706 2.70347 3.4551 2.54264 3.30063C2.39379 3.14963 2.27397 2.97168 2.18933 2.77593C2.0988 2.57282 2.05298 2.35204 2.05508 2.12904C2.05181 1.90396 2.09582 1.68077 2.18417 1.47438C2.27251 1.268 2.40316 1.08318 2.56737 0.932281C2.90257 0.612918 3.34465 0.435213 3.80393 0.435213C4.2632 0.435213 4.70528 0.612918 5.04048 0.932281C5.20471 1.08259 5.33563 1.26672 5.42456 1.47243C5.51349 1.67813 5.5584 1.90073 5.5563 2.12544C5.55841 2.34845 5.51259 2.56923 5.42205 2.77234C5.3378 2.96936 5.21796 3.14856 5.06875 3.30063C4.90807 3.45531 4.71979 3.5773 4.51406 3.66002C4.29514 3.74963 4.0611 3.79481 3.82512 3.79299L3.78626 3.7894ZM9.16705 2.16138C10.2409 1.83203 11.335 1.57511 12.4422 1.3923C13.2702 1.25526 14.1081 1.18914 14.9471 1.19463C15.5705 1.1964 16.1912 1.27729 16.7948 1.43542C17.2441 1.54783 17.6775 1.71812 18.0844 1.94216C18.4626 2.15134 18.7935 2.43883 19.0558 2.7861C19.3181 3.13336 19.5059 3.53268 19.6071 3.95831C19.7178 4.62917 19.8003 5.40424 19.8544 6.28354C19.911 7.02867 19.9357 7.92354 19.9286 8.96815C19.9216 10.0128 19.858 11.1856 19.7379 12.4865C19.6947 13.0566 19.541 13.6124 19.2856 14.1217C19.0757 14.5325 18.7903 14.8985 18.4448 15.1999C18.1212 15.4754 17.748 15.6841 17.346 15.8145C16.9486 15.9456 16.539 16.0347 16.1236 16.0804C15.0274 16.1733 13.9237 16.07 12.8626 15.7749L13.2159 14.2835L14.675 14.6105C14.9695 14.6422 15.2668 14.6313 15.5583 14.5782C15.7822 14.5354 15.9973 14.454 16.1942 14.3374C16.3591 14.242 16.5082 14.1207 16.6359 13.978C16.749 13.8429 16.8419 13.6915 16.9114 13.5288C17.0683 13.1315 17.1452 12.7062 17.1376 12.2781V4.93225C17.1493 3.52825 16.5605 2.73161 15.371 2.54233C14.1816 2.35305 12.4634 2.6789 10.2164 3.51986L11.2445 3.82534C11.1773 4.0412 11.0772 4.24495 10.9477 4.42911C10.7899 4.6687 10.6085 4.93584 10.4036 5.23054H16.3603V6.52433H12.9933V8.12359H16.3426V9.41739H12.9933V12.1128C13.4916 11.949 13.9571 11.6959 14.3677 11.3653L14.085 10.208L15.6678 9.67974L16.9821 13.0831L15.0319 13.96L14.6786 12.58C14.4136 12.7877 14.1364 12.9785 13.8483 13.1514C13.4607 13.3802 13.0511 13.5681 12.6259 13.712C12.0871 13.895 11.5339 14.0308 10.9724 14.1182C10.2711 14.226 9.5611 14.2633 8.85261 14.2296C8.48849 14.2514 8.12348 14.2064 7.77504 14.0966C7.5009 14.0059 7.24909 13.8564 7.03664 13.6581C6.84275 13.4749 6.68558 13.2553 6.57382 13.0112C6.46359 12.77 6.38063 12.5168 6.3265 12.2565C6.20827 11.5779 6.21907 10.8825 6.3583 10.208L6.43956 10.1433H8.82435C8.81022 10.4213 8.7796 10.7435 8.73249 11.1101C8.67738 11.4235 8.72453 11.7466 8.86675 12.0301C8.92694 12.1307 9.00757 12.2171 9.10323 12.2834C9.19889 12.3497 9.30738 12.3945 9.42143 12.4147C9.63747 12.462 9.8576 12.4873 10.0786 12.4901C10.1176 12.5069 10.1599 12.5143 10.2022 12.5117V9.41739H6.76813V8.12359H10.1987V6.52433H9.32957C9.13879 6.74475 8.95389 6.9496 8.77489 7.13888L8.30146 7.64202C8.15072 7.80254 7.99998 7.95588 7.84924 8.10203L6.82113 7.13888C6.99778 6.93283 7.17914 6.70282 7.36521 6.44886C7.55128 6.19489 7.72558 5.93134 7.8881 5.65821C8.05297 5.38747 8.20725 5.12033 8.35093 4.85678L8.75016 4.138C8.55937 4.21228 8.36741 4.29254 8.17427 4.37879C7.98114 4.46505 7.78918 4.55968 7.59839 4.66271C7.40761 4.9023 7.20269 5.16225 6.98365 5.44258C6.76135 5.71463 6.52551 5.97492 6.27704 6.22244C6.27704 6.22244 6.19225 6.19369 6.01913 6.08947L5.43265 5.73008C5.19711 5.56956 4.91565 5.39466 4.58826 5.20538C5.04375 4.77483 5.43742 4.28123 5.75769 3.73909C6.08159 3.2036 6.3696 2.64648 6.61974 2.07154C6.89448 1.4438 7.13047 0.799246 7.32635 0.141632L9.79947 0.860403L9.63695 1.21979L9.45323 1.63668C9.37079 1.7972 9.2754 1.9733 9.16705 2.16497V2.16138ZM2.32712 4.45786L3.25277 5.21257C3.48831 5.40185 3.69087 5.57315 3.86045 5.72649C4.03004 5.88103 4.21376 6.04275 4.37274 6.21885C4.53173 6.39495 4.76137 6.61417 5.01929 6.90168C5.21335 7.10429 5.3653 7.3446 5.46606 7.60826C5.56683 7.87191 5.61434 8.15352 5.60577 8.43626C5.58298 9.14431 5.46409 9.84577 5.25246 10.5207L5.06875 11.1568C5.01457 11.303 4.95687 11.4527 4.89563 11.606C4.83439 11.7594 4.76255 11.9271 4.68011 12.1092L4.35154 12.828L3.83926 13.9924C3.63434 14.4452 3.38114 15.0298 3.07966 15.7462L0.408691 13.9708C0.969264 13.4293 1.4898 12.895 1.97029 12.3679C2.38012 11.9295 2.78053 11.4683 3.17151 10.9843C3.4902 10.6103 3.76196 10.1974 3.98058 9.75521C4.13372 9.47934 4.19097 9.15901 4.1431 8.84596C4.10045 8.60652 4.00898 8.37881 3.87459 8.1775C3.70925 7.96058 3.50703 7.77557 3.27751 7.63124L1.20362 6.29073L2.32712 4.45786Z" fill="white" fill-opacity="0.6"/>
</svg>
