<svg width="42" height="43" viewBox="0 0 42 43" fill="none" xmlns="http://www.w3.org/2000/svg">
<g id="Frame" clip-path="url(#clip0_2220_36)">
<path id="Vector" d="M19.6956 1.86932C23.7695 1.86927 27.7432 3.13222 31.0695 5.48425C34.3959 7.83629 36.9112 11.1617 38.2692 15.0026C32.1129 18.9939 25.9215 22.9308 19.6956 26.8126C22.3212 29.4382 26.9633 32.329 33.6192 35.485C31.3294 37.7751 28.5101 39.4651 25.4111 40.4053C22.3121 41.3455 19.029 41.5069 15.8527 40.8752C12.6764 40.2435 9.70499 38.8381 7.20159 36.7836C4.69819 34.7292 2.74012 32.089 1.50084 29.097C0.261556 26.105 -0.220684 22.8536 0.0968365 19.6307C0.414358 16.4078 1.52184 13.3129 3.32117 10.6203C5.12051 7.92769 7.55615 5.72039 10.4123 4.19395C13.2685 2.66752 16.4571 1.86906 19.6956 1.86932ZM42.0133 20.2486V33.3766H39.3877V20.2486H42.0133ZM36.7621 22.8742V30.751H34.1365V22.8742H36.7621ZM21.0084 9.74615C20.6201 9.74552 20.2364 9.8312 19.8853 9.99701C19.5341 10.1628 19.2242 10.4046 18.978 10.7049C18.7317 11.0052 18.5553 11.3564 18.4614 11.7333C18.3676 12.1101 18.3587 12.5031 18.4353 12.8838C18.5102 13.2649 18.6688 13.6247 18.8998 13.937C19.1307 14.2493 19.4282 14.5063 19.7707 14.6895C20.1133 14.8727 20.4922 14.9774 20.8802 14.9962C21.2682 15.0149 21.6554 14.9472 22.014 14.7978C22.3331 14.6664 22.6231 14.4732 22.8672 14.2294C23.1114 13.9855 23.3049 13.6958 23.4366 13.3769C23.5684 13.0579 23.6358 12.7161 23.635 12.371C23.6342 12.026 23.5651 11.6844 23.4318 11.3662C23.234 10.8863 22.898 10.4761 22.4665 10.1876C22.035 9.89916 21.5275 9.7455 21.0084 9.74615Z" fill="#E39DFF"/>
</g>
<defs>
<clipPath id="clip0_2220_36">
<rect width="42" height="42" fill="white" transform="translate(0 0.561646)"/>
</clipPath>
</defs>
</svg>
